<?xml version="1.0" encoding="UTF-8" standalone="no"?>
<!-- Created with Inkscape (http://www.inkscape.org/) -->

<svg
   xmlns:dc="http://purl.org/dc/elements/1.1/"
   xmlns:cc="http://creativecommons.org/ns#"
   xmlns:rdf="http://www.w3.org/1999/02/22-rdf-syntax-ns#"
   xmlns:svg="http://www.w3.org/2000/svg"
   xmlns="http://www.w3.org/2000/svg"
   xmlns:sodipodi="http://sodipodi.sourceforge.net/DTD/sodipodi-0.dtd"
   xmlns:inkscape="http://www.inkscape.org/namespaces/inkscape"
   id="svg2"
   version="1.1"
   inkscape:version="0.91 r13725"
   xml:space="preserve"
   width="266.35126"
   height="283.61612"
   viewBox="0 0 266.35126 283.61612"
   sodipodi:docname="haus_kollection.svg"
   shape-rendering="crispEdges"><metadata
     id="metadata8"><rdf:RDF><cc:Work
         rdf:about=""><dc:format>image/svg+xml</dc:format><dc:type
           rdf:resource="http://purl.org/dc/dcmitype/StillImage" /><dc:title></dc:title></cc:Work></rdf:RDF></metadata><defs
     id="defs6" /><sodipodi:namedview
     pagecolor="#ffffff"
     bordercolor="#666666"
     borderopacity="1"
     objecttolerance="10"
     gridtolerance="10"
     guidetolerance="10"
     inkscape:pageopacity="0"
     inkscape:pageshadow="2"
     inkscape:window-width="2310"
     inkscape:window-height="1181"
     id="namedview4"
     showgrid="false"
     fit-margin-top="0"
     fit-margin-left="0"
     fit-margin-right="0"
     fit-margin-bottom="0"
     inkscape:showpageshadow="false"
     showborder="false"
     inkscape:zoom="0.83212133"
     inkscape:cx="135.5785"
     inkscape:cy="139.40276"
     inkscape:window-x="0"
     inkscape:window-y="41"
     inkscape:window-maximized="0"
     inkscape:current-layer="g10" /><g
     id="g10"
     inkscape:groupmode="layer"
     inkscape:label="ink_ext_XXXXXX"
     transform="matrix(1.25,0,0,-1.25,0,283.61612)"><g
       id="g12"
       transform="scale(0.1,0.1)"><path
         d="m 0.71875,88.1914 61.05465,0 0,-8.6211 -25.8984,0 0,-76.92967 -8.9062,0 0,76.92967 -26.25005,0 0,8.6211"
         style="fill:#2e3031;fill-opacity:1;fill-rule:nonzero;stroke:none"
         id="path14"
         inkscape:connector-curvature="0" /><path
         d="m 82.6523,88.1914 8.9063,0 0,-35.8594 45.4684,0 0,35.8594 8.848,0 0,-85.55077 -8.848,0 0,41.42967 -45.4684,0 0,-41.42967 -8.9063,0 0,85.55077"
         style="fill:#2e3031;fill-opacity:1;fill-rule:nonzero;stroke:none"
         id="path16"
         inkscape:connector-curvature="0" /><path
         d="m 174.961,88.1914 52.207,0 0,-8.2617 -43.301,0 0,-27.25 38.262,0 0,-8.3789 -38.262,0 0,-33.4024 44.121,0 0,-8.25777 -53.027,0 0,85.55077"
         style="fill:#2e3031;fill-opacity:1;fill-rule:nonzero;stroke:none"
         id="path18"
         inkscape:connector-curvature="0" /><path
         d="m 305.02,44.3008 0,-33.5117 24.726,0 c 7.734,0 13.426,1.3515 17.078,4.0703 3.653,2.7109 5.481,6.9219 5.481,12.6211 0,5.7109 -1.836,9.9414 -5.508,12.6914 -3.672,2.75 -9.356,4.1289 -17.051,4.1289 l -24.726,0 z m 0,35.7383 0,-27.9493 22.734,0 c 6.641,0 11.473,1.0704 14.5,3.1993 3.027,2.1328 4.543,5.5312 4.543,10.2226 0,5.0781 -1.692,8.7696 -5.07,11.0781 -3.379,2.3008 -8.797,3.4493 -16.258,3.4493 l -20.449,0 z m -8.262,8.1523 31.465,0 c 8.789,0 15.437,-1.793 19.949,-5.3594 4.512,-3.582 6.769,-8.8203 6.769,-15.7422 0,-4.3281 -1.086,-7.9804 -3.253,-10.9492 -2.168,-2.9687 -5.438,-5.2812 -9.813,-6.9218 l 0.234,-0.1094 c 5.938,-1.0196 10.606,-3.4492 14.004,-7.3008 3.399,-3.8477 5.098,-8.6172 5.098,-14.3281 0,-8.9805 -2.625,-15.3711 -7.883,-19.16019 -5.254,-3.78125 -14.383,-5.67968 -27.39,-5.67968 l -29.18,0 0,85.55077"
         style="fill:#2e3031;fill-opacity:1;fill-rule:nonzero;stroke:none"
         id="path20"
         inkscape:connector-curvature="0" /><path
         d="m 387.133,88.1914 52.207,0 0,-8.2617 -43.301,0 0,-27.25 38.262,0 0,-8.3789 -38.262,0 0,-33.4024 44.121,0 0,-8.25777 -53.027,0 0,85.55077"
         style="fill:#2e3031;fill-opacity:1;fill-rule:nonzero;stroke:none"
         id="path22"
         inkscape:connector-curvature="0" /><path
         d="m 529.359,65.3906 -9.609,0 c -0.547,5.3985 -2.82,9.5508 -6.824,12.461 -4.004,2.9101 -9.446,4.3593 -16.321,4.3593 -7.226,0 -12.898,-1.4218 -17.019,-4.2812 -4.121,-2.8477 -6.184,-6.75 -6.184,-11.7109 0,-4.0274 1.465,-7.0704 4.395,-9.1172 2.93,-2.0508 9.258,-3.9532 18.984,-5.711 0.782,-0.1601 1.895,-0.3515 3.34,-0.582 10.899,-1.8789 18.555,-4.5 22.969,-7.8594 2.422,-1.8281 4.289,-4.1484 5.598,-6.9375 1.308,-2.7929 1.96,-5.7929 1.96,-8.9922 0,-7.8203 -3.054,-14.2695 -9.168,-19.37106 C 515.367,2.55078 507.504,0 497.895,0 487.309,0 478.93,2.53125 472.758,7.58984 466.586,12.6484 463.168,19.8086 462.504,29.0703 l 9.844,-0.0586 c 0.117,-6.2929 2.394,-11.3008 6.828,-15.0312 4.433,-3.7305 10.359,-5.60159 17.781,-5.60159 6.836,0 12.5,1.71089 16.992,5.13279 4.492,3.418 6.739,7.6289 6.739,12.6289 0,4.6094 -1.622,8.0899 -4.864,10.461 -3.242,2.3593 -10.176,4.4804 -20.801,6.3476 -0.429,0.0821 -1.054,0.1992 -1.875,0.3594 -10,1.7109 -16.894,3.8398 -20.683,6.3828 -2.891,1.918 -5.078,4.2383 -6.563,6.9688 -1.484,2.7382 -2.226,5.8086 -2.226,9.1992 0,7.3515 2.929,13.3008 8.789,17.8711 5.859,4.5781 13.535,6.8593 23.027,6.8593 10.156,0 18.125,-2.1601 23.906,-6.4687 5.782,-4.3203 9.102,-10.5625 9.961,-18.7305"
         style="fill:#2e3031;fill-opacity:1;fill-rule:nonzero;stroke:none"
         id="path24"
         inkscape:connector-curvature="0" /><path
         d="m 546.488,88.1914 61.055,0 0,-8.6211 -25.898,0 0,-76.92967 -8.907,0 0,76.92967 -26.25,0 0,8.6211"
         style="fill:#2e3031;fill-opacity:1;fill-rule:nonzero;stroke:none"
         id="path26"
         inkscape:connector-curvature="0" /><path
         d="m 705.848,82.332 c -9.024,0 -16.407,-3.5117 -22.149,-10.5234 -5.738,-7.0078 -8.609,-16.0586 -8.609,-27.1602 0,-10.5781 2.887,-19.2695 8.668,-26.0664 5.785,-6.8007 13.144,-10.20309 22.09,-10.20309 9.101,0 16.535,3.44139 22.297,10.32029 5.761,6.8711 8.64,15.7617 8.64,26.6602 0,10.7812 -2.906,19.6328 -8.73,26.5703 -5.821,6.9297 -13.219,10.4023 -22.207,10.4023 z m 0.117,8.2578 c 5.121,0 9.941,-0.871 14.473,-2.6093 4.531,-1.7383 8.535,-4.2617 12.011,-7.5899 4.766,-4.5312 8.344,-9.6992 10.723,-15.5195 2.383,-5.8203 3.574,-12.332 3.574,-19.5117 0,-6.2891 -1.074,-12.3281 -3.223,-18.1094 -2.144,-5.7812 -5.195,-10.7812 -9.14,-15 -3.828,-4.10156 -8.086,-7.14844 -12.774,-9.14062 -4.687,-1.98829 -9.898,-2.988286 -15.644,-2.988286 -5.82,0 -11.25,1.121096 -16.289,3.371096 -5.039,2.25 -9.336,5.4375 -12.891,9.57811 -3.984,4.6094 -6.922,9.5195 -8.816,14.7383 -1.895,5.2109 -2.84,11.0625 -2.84,17.5508 0,6.6015 0.973,12.539 2.926,17.8398 1.953,5.293 4.98,10.2227 9.082,14.793 3.633,4.0273 7.941,7.1289 12.922,9.3164 4.98,2.1914 10.281,3.2812 15.906,3.2812"
         style="fill:#2e3031;fill-opacity:1;fill-rule:nonzero;stroke:none"
         id="path28"
         inkscape:connector-curvature="0" /><path
         d="m 771.316,88.1914 52.207,0 0,-8.2617 -43.3,0 0,-27.25 39.082,0 0,-8.3789 -39.082,0 0,-41.66017 -8.907,0 0,85.55077"
         style="fill:#2e3031;fill-opacity:1;fill-rule:nonzero;stroke:none"
         id="path30"
         inkscape:connector-curvature="0" /><path
         d="m 888.668,88.1914 9.492,0 33.692,-74.2422 0.41,0 33.808,74.2422 9.61,0 0,-85.55077 -8.672,0 0.644,71.12887 -0.644,0 -31.289,-71.12887 -7.207,0 -31.289,71.12887 -0.762,0 0.762,-71.12887 -8.555,0 0,85.55077"
         style="fill:#2e3031;fill-opacity:1;fill-rule:nonzero;stroke:none"
         id="path32"
         inkscape:connector-curvature="0" /><path
         d="m 1034.23,78.3398 -19.1,-48.2187 38.32,0 -18.98,48.2187 -0.24,0 z m -4.8,9.8516 9.72,0 35.16,-85.55077 -9.73,0 -7.91,19.44917 -44.76,0 -8.03,-19.44917 -9.607,0 35.157,85.55077"
         style="fill:#2e3031;fill-opacity:1;fill-rule:nonzero;stroke:none"
         id="path34"
         inkscape:connector-curvature="0" /><path
         d="m 1101.93,79.9297 0,-69.0313 18.46,0 c 11.99,0 21.03,2.8907 27.12,8.6719 6.1,5.7891 9.14,14.3789 9.14,25.7891 0,11.3594 -3.06,19.9726 -9.19,25.8125 -6.14,5.8398 -15.16,8.7578 -27.07,8.7578 l -18.46,0 z m -8.91,8.2617 27.95,0 c 14.53,0 25.79,-3.75 33.78,-11.25 7.99,-7.5 11.98,-18.0312 11.98,-31.582 0,-13.211 -3.92,-23.6289 -11.77,-31.2578 C 1147.1,6.46094 1136.42,2.64063 1122.9,2.64063 l -29.88,0 0,85.55077"
         style="fill:#2e3031;fill-opacity:1;fill-rule:nonzero;stroke:none"
         id="path36"
         inkscape:connector-curvature="0" /><path
         d="m 1191.19,88.1914 52.21,0 0,-8.2617 -43.3,0 0,-27.25 38.26,0 0,-8.3789 -38.26,0 0,-33.4024 44.12,0 0,-8.25777 -53.03,0 0,85.55077"
         style="fill:#2e3031;fill-opacity:1;fill-rule:nonzero;stroke:none"
         id="path38"
         inkscape:connector-curvature="0" /><path
         d="m 1313.81,2.64063 8.9102,0 0,85.5508 -8.9102,0 0,-85.5508 z"
         style="fill:#2e3031;fill-opacity:1;fill-rule:nonzero;stroke:none"
         id="path40"
         inkscape:connector-curvature="0" /><path
         d="m 1352.21,88.1914 9.38,0 51.62,-71.3711 0.35,0.5899 0,70.7812 8.85,0 0,-85.55077 -9.5,0 -51.79,72.12887 -0.53,0 0.53,-72.12887 -8.91,0 0,85.55077"
         style="fill:#2e3031;fill-opacity:1;fill-rule:nonzero;stroke:none"
         id="path42"
         inkscape:connector-curvature="0" /><path
         d="m 1565.18,62.8789 -9.49,0 c -1.84,6.25 -5,11.0703 -9.49,14.4727 -4.5,3.3984 -9.93,5.0976 -16.29,5.0976 -9.34,0 -16.94,-3.4297 -22.8,-10.289 -5.86,-6.8516 -8.79,-15.75 -8.79,-26.6914 0,-10.9688 2.94,-19.9375 8.82,-26.8868 5.88,-6.9531 13.39,-10.43356 22.53,-10.43356 7.97,0 14.5,2.55076 19.6,7.65236 5.1,5.0898 7.65,11.668 7.65,19.7109 l 0,0.4688 -15.47,0 0,7.789 24.08,0 0,-41.12887 -6.68,0 -0.53,13.82817 C 1555.55,11.082 1551.69,6.99219 1546.75,4.19141 1541.81,1.39844 1535.96,0 1529.2,0 c -4.72,0 -9.13,0.671875 -13.21,2 -4.08,1.32031 -7.76,3.30078 -11.04,5.91016 -5.43,4.42184 -9.59,9.83984 -12.48,16.26174 -2.9,6.4297 -4.34,13.5273 -4.34,21.2969 0,6.6406 0.97,12.5898 2.9,17.8398 1.93,5.2617 4.97,10.1914 9.11,14.8008 3.71,4.1015 8.01,7.2304 12.89,9.3711 4.88,2.1484 10.2,3.2304 15.94,3.2304 9.34,0 17.18,-2.4296 23.52,-7.3007 6.35,-4.8594 10.58,-11.711 12.69,-20.5313"
         style="fill:#2e3031;fill-opacity:1;fill-rule:nonzero;stroke:none"
         id="path44"
         inkscape:connector-curvature="0" /><path
         d="m 1591.81,88.1914 52.21,0 0,-8.2617 -43.3,0 0,-27.25 38.26,0 0,-8.3789 -38.26,0 0,-33.4024 44.12,0 0,-8.25777 -53.03,0 0,85.55077"
         style="fill:#2e3031;fill-opacity:1;fill-rule:nonzero;stroke:none"
         id="path46"
         inkscape:connector-curvature="0" /><path
         d="m 1681.36,79.9297 0,-30.8203 22.91,0 c 6.64,0 11.62,1.3203 14.94,3.9804 3.32,2.6602 4.98,6.6407 4.98,11.9493 0,4.7695 -1.72,8.4414 -5.18,11.0195 -3.46,2.582 -8.37,3.8711 -14.74,3.8711 l -22.91,0 z m -8.9,8.2617 32.75,0 c 8.87,0 15.74,-1.9219 20.62,-5.7422 4.89,-3.8281 7.33,-9.1992 7.33,-16.1172 0,-5.582 -1.47,-10.1523 -4.4,-13.7109 -2.93,-3.5508 -6.97,-5.6602 -12.12,-6.332 L 1716.4,46 c 5.27,-0.0781 9.13,-1.4102 11.57,-3.9805 2.44,-2.5781 3.67,-6.6601 3.67,-12.25 l 0,-4.3398 c 0,-7.418 0.36,-12.6406 1.08,-15.66798 0.72,-3.03125 1.96,-5.40234 3.72,-7.12109 l -11.19,0 c -1.06,1.75781 -1.82,3.64062 -2.29,5.66015 -0.47,2.00782 -0.7,4.66802 -0.7,7.98832 l 0,7.7422 c 0,7.1484 -0.93,11.75 -2.78,13.8007 -1.86,2.0469 -5.48,3.0664 -10.87,3.0664 l -27.25,0 0,-38.25777 -8.9,0 0,85.55077"
         style="fill:#2e3031;fill-opacity:1;fill-rule:nonzero;stroke:none"
         id="path48"
         inkscape:connector-curvature="0" /><path
         d="m 1759.19,88.1914 9.5,0 33.69,-74.2422 0.41,0 33.81,74.2422 9.61,0 0,-85.55077 -8.68,0 0.65,71.12887 -0.65,0 -31.29,-71.12887 -7.2,0 -31.29,71.12887 -0.76,0 0.76,-71.12887 -8.56,0 0,85.55077"
         style="fill:#2e3031;fill-opacity:1;fill-rule:nonzero;stroke:none"
         id="path50"
         inkscape:connector-curvature="0" /><path
         d="m 1904.76,78.3398 -19.1,-48.2187 38.32,0 -18.99,48.2187 -0.23,0 z m -4.8,9.8516 9.72,0 35.16,-85.55077 -9.73,0 -7.91,19.44917 -44.76,0 -8.03,-19.44917 -9.61,0 35.16,85.55077"
         style="fill:#2e3031;fill-opacity:1;fill-rule:nonzero;stroke:none"
         id="path52"
         inkscape:connector-curvature="0" /><path
         d="m 1963.55,88.1914 9.37,0 51.63,-71.3711 0.35,0.5899 0,70.7812 8.84,0 0,-85.55077 -9.49,0 -51.79,72.12887 -0.53,0 0.53,-72.12887 -8.91,0 0,85.55077"
         style="fill:#2e3031;fill-opacity:1;fill-rule:nonzero;stroke:none"
         id="path54"
         inkscape:connector-curvature="0" /><path
         d="m 2052.46,88.1914 10.89,0 26.31,-45.8203 26.14,45.8203 10.95,0 -32.63,-54.4922 0,-31.05857 -8.91,0 0,31.05857 -32.75,54.4922"
         style="fill:#2e3031;fill-opacity:1;fill-rule:nonzero;stroke:none"
         id="path56"
         inkscape:connector-curvature="0" /><path
         d="m 384.375,1450.77 c 0,-34.26 8.152,-58.94 24.473,-74.03 16.308,-15.09 43.226,-22.63 80.75,-22.63 l 13.465,0 0,-28.75 -354.219,0 0,28.75 13.461,0 c 37.105,0 63.929,7.54 80.445,22.63 16.516,15.09 24.777,39.77 24.777,74.03 l 0,583.63 c 0,34.66 -8.261,59.65 -24.777,74.94 -16.516,15.3 -43.34,22.95 -80.445,22.95 l -13.461,0 0,28.75 354.219,0 0,-28.75 -13.465,0 c -37.114,0 -63.93,-7.65 -80.442,-22.95 -16.519,-15.29 -24.781,-40.28 -24.781,-74.94 l 0,-266.73 515.727,0 0,266.73 c 0,34.66 -8.262,59.65 -24.782,74.94 -16.511,15.3 -43.34,22.95 -80.441,22.95 l -13.461,0 0,28.75 352.992,0 0,-28.75 -13.46,0 c -37.12,0 -63.93,-7.65 -80.45,-22.95 -16.52,-15.29 -24.77,-40.28 -24.77,-74.94 l 1.22,-583.63 c 0,-34.26 8.05,-58.94 24.16,-74.03 16.11,-15.09 42.72,-22.63 79.84,-22.63 l 13.46,0 0,-28.75 -352.992,0 0,28.75 13.461,0 c 37.512,0 64.434,7.54 80.75,22.63 16.309,15.09 24.473,39.77 24.473,74.03 l 0,282.03 -515.727,0 0,-282.03"
         style="fill:#1b1c1c;fill-opacity:1;fill-rule:nonzero;stroke:none"
         id="path58"
         inkscape:connector-curvature="0" /><path
         d="m 1441.52,1743.81 234.31,0 -116.24,313.23 -118.07,-313.23 z m -301.6,-418.45 0,27.53 c 34.25,0.4 59.74,6.11 76.47,17.13 16.72,11 34.26,40.37 52.61,88.09 l 240.43,641.75 c 4.48,11.02 7.85,20.69 10.1,29.06 2.23,8.35 3.36,15.8 3.36,22.33 0,3.67 -0.61,7.95 -1.84,12.85 -1.22,4.89 -3.06,9.79 -5.5,14.68 l 116.23,0 264.9,-714.55 c 18.35,-48.13 35.07,-78.72 50.17,-91.77 15.08,-13.06 35.88,-19.57 62.39,-19.57 l 13.47,0 0,-27.53 -362.78,0 1.22,27.53 c 0.81,0 2.04,0 3.67,0 20.8,-1.64 35.27,-2.45 43.44,-2.45 31.8,0 54.84,3.87 69.13,11.62 14.26,7.74 21.4,20.19 21.4,37.32 0,4.07 -1.12,10.6 -3.36,19.58 -2.24,8.97 -5.41,19.17 -9.48,30.59 l -89.93,244.09 -273.47,0 -92.37,-244.09 c -3.67,-10.62 -6.43,-19.89 -8.26,-27.84 -1.84,-7.95 -2.96,-14.58 -3.36,-19.88 0,-17.54 6.73,-30.5 20.18,-38.85 13.46,-8.37 34.47,-12.54 63.01,-12.54 7.35,0 20.6,0.81 39.77,2.45 1.63,0 2.85,0 3.67,0 l 0,-27.53 -305.27,0"
         style="fill:#1b1c1c;fill-opacity:1;fill-rule:nonzero;stroke:none"
         id="path60"
         inkscape:connector-curvature="0" /><path
         d="m 479.844,1353.52 0,-28.76 -13.371,0 c -34.868,0 -60.246,-7.65 -76.133,-22.94 -15.891,-15.3 -23.828,-40.28 -23.828,-74.95 l 0,-352.991 c 0,-54.238 3.972,-96.758 11.914,-127.547 7.937,-30.801 21.012,-58.023 39.23,-81.672 23.629,-31.41 55.598,-55.57 95.895,-72.5 40.293,-16.922 85.82,-25.39 136.582,-25.39 53.465,0 101.414,8.878 143.84,26.609 42.429,17.75 75.066,42.32 97.929,73.723 16.657,22.847 28.477,50.48 35.45,82.898 6.98,32.43 10.464,80.648 10.464,144.68 l 0,332.19 c 0,34.67 -7.847,59.65 -23.539,74.95 -15.687,15.29 -41.172,22.94 -76.425,22.94 l -12.786,0 0,28.76 286.524,0 0,-28.76 -12.79,0 c -35.26,0 -60.73,-7.65 -76.42,-22.94 -15.69,-15.3 -23.536,-40.28 -23.536,-74.95 l 0,-352.991 c 0,-129.688 -30.324,-224.82 -90.957,-285.391 -60.645,-60.566 -155.672,-90.847 -285.074,-90.847 -122.829,0 -214.262,31.101 -274.317,93.3 -60.062,62.188 -90.082,156.508 -90.082,282.938 l 0,352.991 c 0,34.67 -7.848,59.65 -23.543,74.95 -15.687,15.29 -41.172,22.94 -76.426,22.94 l -13.363,0 0,28.76 334.762,0"
         style="fill:#1b1c1c;fill-opacity:1;fill-rule:nonzero;stroke:none"
         id="path62"
         inkscape:connector-curvature="0" /><path
         d="m 1287.47,522.109 -34.41,201.282 34.41,-3.672 c 21.91,-59.547 56.7,-105.129 104.38,-136.727 47.67,-31.621 105.4,-47.422 173.21,-47.422 64.24,0 118.15,14.789 161.74,44.36 43.59,29.57 65.38,65.152 65.38,106.75 0,59.961 -69.09,126.218 -207.23,198.832 -11.22,6.117 -19.64,10.597 -25.24,13.457 L 1549,904.48 c -133.06,70.551 -211.83,121.74 -236.3,153.55 -15.29,19.16 -26.64,38.33 -34.02,57.5 -7.41,19.17 -11.1,39.16 -11.1,59.96 0,58.73 28.04,106.03 84.12,141.93 56.08,35.88 130.26,53.83 222.53,53.83 39.77,0 83.36,-5.5 130.77,-16.52 47.42,-11 75.96,-16.51 85.65,-16.51 8.15,0 16.56,0.92 25.23,2.75 8.68,1.84 17.85,4.38 27.54,7.65 l 28.29,-171.91 -32.88,-1.22 c -26,51.38 -61.18,90.94 -105.53,118.68 -44.35,27.73 -94.06,41.6 -149.13,41.6 -54.55,0 -99.54,-11.93 -134.97,-35.79 -35.44,-23.85 -53.14,-54.14 -53.14,-90.84 0,-56.7 73.92,-123.38 221.77,-200.05 l 5.35,-2.45 c 4.59,-2.45 11.72,-6.12 21.41,-11.011 93.8,-48.137 160.08,-88.707 198.83,-121.75 22.94,-19.57 40.77,-41.899 53.53,-66.981 12.73,-25.089 19.12,-50.468 19.12,-76.168 0,-73.011 -31.24,-130.109 -93.68,-171.289 -62.45,-41.199 -149.25,-61.8 -260.38,-61.8 -33.16,0 -72.92,5.41 -119.3,16.218 -46.4,10.801 -77.24,16.211 -92.53,16.211 -11.74,0 -22.7,-0.718 -32.89,-2.148 -10.21,-1.422 -20.15,-3.363 -29.82,-5.813"
         style="fill:#1b1c1c;fill-opacity:1;fill-rule:nonzero;stroke:none"
         id="path64"
         inkscape:connector-curvature="0" /><path
         d="m 137.563,228.961 0,8.219 c 7.246,0.851 12.101,2.55 14.566,5.109 2.465,2.563 3.695,7.762 3.695,15.609 l 0,74.692 c 0,7.801 -1.215,12.949 -3.652,15.48 -2.438,2.532 -7.305,4.219 -14.609,5.071 l 0,8.218 57.984,0 0,-8.218 c -7.367,-0.852 -12.27,-2.539 -14.703,-5.071 -2.438,-2.531 -3.653,-7.679 -3.653,-15.48 l 0,-30.5 61.911,0 0,30.5 c 0,7.742 -1.235,12.879 -3.704,15.43 -2.464,2.562 -7.41,4.269 -14.832,5.121 l 0,8.218 58.161,0 0,-8.218 c -7.43,-0.852 -12.372,-2.559 -14.836,-5.121 -2.465,-2.551 -3.7,-7.688 -3.7,-15.43 l 0,-74.692 c 0,-7.789 1.25,-12.968 3.743,-15.558 2.496,-2.59 7.429,-4.309 14.793,-5.16 l 0,-8.219 -58.161,0 0,8.219 c 7.364,0.851 12.293,2.57 14.789,5.16 2.497,2.59 3.747,7.769 3.747,15.558 l 0,34.614 -61.911,0 0,-34.614 c 0,-7.847 1.231,-13.046 3.696,-15.609 2.468,-2.559 7.355,-4.258 14.66,-5.109 l 0,-8.219 -57.984,0"
         style="fill:#2e3031;fill-opacity:1;fill-rule:nonzero;stroke:none"
         id="path66"
         inkscape:connector-curvature="0" /><path
         d="m 329.77,293.059 34.605,0 -16.984,49.761 -17.621,-49.761 z m -39.082,-64.098 0,8.219 c 4.203,0.781 7.55,2.511 10.05,5.16 2.492,2.64 5.262,8.23 8.305,16.762 l 32.324,91.207 c 0.059,0.121 0.18,0.402 0.367,0.82 0.911,2.371 1.368,4.172 1.368,5.391 0,0.851 -0.168,1.671 -0.504,2.46 -0.332,0.79 -0.805,1.579 -1.41,2.379 l 19.812,0 37.617,-104.187 c 2.434,-6.934 4.961,-11.883 7.578,-14.832 2.618,-2.961 5.813,-4.68 9.59,-5.16 l 0,-8.219 -50.859,0 0,8.219 c 5.172,0.609 8.715,1.59 10.637,2.961 1.917,1.379 2.875,3.519 2.875,6.449 0,1.512 -0.168,3.16 -0.504,4.922 -0.332,1.769 -0.805,3.468 -1.414,5.117 l -8.946,26.019 -41.363,0 -6.484,-22.277 c -0.489,-1.699 -0.872,-3.422 -1.141,-5.16 -0.277,-1.742 -0.414,-3.301 -0.414,-4.699 0,-3.782 1.051,-6.653 3.152,-8.633 2.098,-1.981 5.735,-3.547 10.91,-4.699 l 0,-8.219 -41.546,0"
         style="fill:#2e3031;fill-opacity:1;fill-rule:nonzero;stroke:none"
         id="path68"
         inkscape:connector-curvature="0" /><path
         d="m 423.816,353.691 0,7.668 55.153,0 0,-7.668 c -6.453,-0.98 -10.778,-2.812 -12.969,-5.48 -2.191,-2.68 -3.285,-8.402 -3.285,-17.172 l 0,-60.168 c 0,-10.891 2.754,-19.152 8.262,-24.742 5.507,-5.609 13.652,-8.399 24.429,-8.399 5.715,0 10.922,1.032 15.61,3.102 4.687,2.059 8.527,5.02 11.504,8.848 2.132,2.621 3.636,5.832 4.523,9.64 0.883,3.801 1.32,10.391 1.32,19.77 l 0,47.121 c 0,11.199 -1.336,18.5 -4.019,21.91 -2.672,3.41 -7.699,5.258 -15.063,5.57 l 0,7.668 46.567,0 0,-7.668 c -6.817,-0.98 -11.516,-3.222 -14.106,-6.711 -2.586,-3.511 -3.883,-10.429 -3.883,-20.769 l 0,-52.141 c 0,-8.531 -0.668,-14.929 -2.004,-19.218 -1.343,-4.301 -3.593,-8.364 -6.757,-12.204 -4.508,-5.41 -10.09,-9.488 -16.758,-12.226 -6.668,-2.742 -14.352,-4.113 -23.055,-4.113 -16.074,0 -28.015,3.793 -35.84,11.371 -7.82,7.582 -11.73,19.129 -11.73,34.652 l 0,58.707 c 0,8.711 -1.203,14.473 -3.61,17.301 -2.402,2.84 -7.167,4.609 -14.289,5.351"
         style="fill:#2e3031;fill-opacity:1;fill-rule:nonzero;stroke:none"
         id="path70"
         inkscape:connector-curvature="0" /><path
         d="m 575.664,237.73 0,31.219 7.211,-0.91 c 2.617,-10.898 6.652,-19.129 12.102,-24.699 5.445,-5.57 12.156,-8.36 20.128,-8.36 6.211,0 11.34,2.051 15.387,6.129 4.051,4.071 6.074,9.192 6.074,15.332 0,5.36 -1.566,10.161 -4.703,14.379 -3.136,4.231 -10.484,10.149 -22.05,17.77 -14.184,9.301 -23.118,16.609 -26.801,21.91 -3.68,5.301 -5.524,11.539 -5.524,18.711 0,10.348 3.332,18.68 9.996,24.98 6.672,6.301 15.481,9.45 26.438,9.45 5.297,0 10.879,-0.871 16.758,-2.602 5.867,-1.738 12.215,-4.379 19.035,-7.898 l 0,-27.121 -7.856,0 c -1.398,9.621 -4.457,16.902 -9.175,21.871 -4.715,4.961 -10.969,7.441 -18.762,7.441 -6.207,0 -11.277,-1.703 -15.203,-5.113 -3.93,-3.41 -5.891,-7.789 -5.891,-13.16 0,-3.028 0.531,-5.848 1.602,-8.43 1.062,-2.59 2.66,-4.899 4.789,-6.899 3.289,-3.171 10.136,-8.16 20.547,-14.98 5.535,-3.648 9.828,-6.512 12.875,-8.578 8.156,-5.602 13.937,-10.973 17.347,-16.113 3.41,-5.149 5.114,-10.95 5.114,-17.399 0,-11.629 -3.825,-20.98 -11.461,-28.07 -7.641,-7.098 -17.793,-10.649 -30.45,-10.649 -6.757,0 -13.242,0.981 -19.453,2.93 -6.203,1.938 -12.23,4.891 -18.074,8.859"
         style="fill:#2e3031;fill-opacity:1;fill-rule:nonzero;stroke:none"
         id="path72"
         inkscape:connector-curvature="0" /><path
         d="m 763.941,257.898 c 0,-7.847 1.235,-13.046 3.696,-15.609 2.465,-2.559 7.351,-4.258 14.66,-5.109 l 0,-8.219 -57.984,0 0,8.219 c 7.304,0.851 12.191,2.55 14.656,5.109 2.465,2.563 3.699,7.762 3.699,15.609 l 0,74.692 c 0,7.801 -1.223,12.949 -3.656,15.48 -2.434,2.532 -7.332,4.219 -14.699,5.071 l 0,8.218 57.984,0 0,-8.218 c -7.309,-0.852 -12.195,-2.539 -14.66,-5.071 -2.461,-2.531 -3.696,-7.679 -3.696,-15.48 l 0,-33.692 33.329,30.313 c 4.625,4.199 7.679,7.43 9.175,9.68 1.489,2.257 2.235,4.441 2.235,6.578 0,2.429 -0.942,4.34 -2.832,5.711 -1.883,1.359 -4.746,2.199 -8.578,2.511 l 0,7.668 52.132,0 0,-7.668 c -5.839,-1.043 -11,-2.679 -15.472,-4.941 -4.477,-2.238 -9.606,-6.078 -15.383,-11.5 l -33.785,-32.41 48.574,-50.399 c 6.332,-6.582 11.641,-11.101 15.93,-13.57 4.293,-2.461 8.722,-3.691 13.289,-3.691 l 0.367,0 0,-8.219 -32.965,0 -60.906,63.008 -5.11,-3.379 0,-30.692"
         style="fill:#2e3031;fill-opacity:1;fill-rule:nonzero;stroke:none"
         id="path74"
         inkscape:connector-curvature="0" /><path
         d="m 884.102,299.992 c 0,-20.023 3.836,-35.902 11.503,-47.652 7.672,-11.75 17.93,-17.629 30.774,-17.629 12.601,0 22.414,5.07 29.445,15.211 7.031,10.129 10.547,24.328 10.547,42.59 0,18.988 -3.988,34.32 -11.961,45.968 -7.976,11.661 -18.32,17.489 -31.047,17.489 -12.293,0 -21.914,-4.93 -28.851,-14.789 -6.938,-9.871 -10.41,-23.59 -10.41,-41.188 z m 40.722,-73.683 c -9.254,0 -17.953,1.812 -26.113,5.433 -8.16,3.629 -15.336,8.879 -21.547,15.75 -5.301,5.789 -9.332,12.629 -12.101,20.547 -2.766,7.91 -4.157,16.582 -4.157,26.031 0,9.36 1.403,18.129 4.207,26.289 2.797,8.161 6.875,15.282 12.231,21.36 6.269,7.191 13.609,12.703 22.008,16.543 8.398,3.82 17.347,5.75 26.843,5.75 8.34,0 16.207,-1.551 23.606,-4.66 7.394,-3.11 14.105,-7.68 20.129,-13.704 6.515,-6.507 11.383,-13.828 14.613,-21.949 3.227,-8.14 4.836,-17.16 4.836,-27.078 0,-8.652 -1.293,-16.891 -3.875,-24.75 -2.59,-7.851 -6.289,-14.789 -11.094,-20.812 -6.578,-8.219 -14.019,-14.411 -22.332,-18.539 -8.305,-4.141 -17.39,-6.211 -27.254,-6.211"
         style="fill:#2e3031;fill-opacity:1;fill-rule:nonzero;stroke:none"
         id="path76"
         inkscape:connector-curvature="0" /><path
         d="m 1007.37,228.961 0,8.219 c 6.63,0.121 11.37,1.582 14.2,4.379 2.83,2.8 4.25,7.402 4.25,13.793 l 0,82.089 c 0,5.778 -1.41,9.899 -4.2,12.368 -2.81,2.461 -7.55,3.761 -14.25,3.882 l 0,7.668 58.71,0 0,-7.668 c -6.33,0 -11.06,-1.39 -14.2,-4.152 -3.13,-2.777 -4.7,-6.93 -4.7,-12.48 l 0,-78.7 c 0,-8.711 1.74,-14.5 5.21,-17.39 3.46,-2.899 10.52,-4.34 21.18,-4.34 11.32,0 20.65,2.203 27.99,6.621 7.33,4.41 13.01,11.25 17.02,20.492 l 8.41,-2.273 -8.04,-32.508 -111.58,0"
         style="fill:#2e3031;fill-opacity:1;fill-rule:nonzero;stroke:none"
         id="path78"
         inkscape:connector-curvature="0" /><path
         d="m 1142.05,228.961 0,8.219 c 6.63,0.121 11.37,1.582 14.19,4.379 2.84,2.8 4.25,7.402 4.25,13.793 l 0,82.089 c 0,5.778 -1.4,9.899 -4.2,12.368 -2.8,2.461 -7.55,3.761 -14.24,3.882 l 0,7.668 58.72,0 0,-7.668 c -6.34,0 -11.07,-1.39 -14.21,-4.152 -3.13,-2.777 -4.7,-6.93 -4.7,-12.48 l 0,-78.7 c 0,-8.711 1.73,-14.5 5.21,-17.39 3.46,-2.899 10.52,-4.34 21.18,-4.34 11.32,0 20.65,2.203 27.98,6.621 7.34,4.41 13.01,11.25 17.04,20.492 l 8.39,-2.273 -8.03,-32.508 -111.58,0"
         style="fill:#2e3031;fill-opacity:1;fill-rule:nonzero;stroke:none"
         id="path80"
         inkscape:connector-curvature="0" /><path
         d="m 1273.72,228.961 0,8.219 c 7.3,0.851 12.19,2.55 14.65,5.109 2.47,2.563 3.7,7.762 3.7,15.609 l 0,75.793 c 0,7.86 -1.23,13.059 -3.7,15.61 -2.46,2.558 -7.35,4.269 -14.65,5.121 l 0,6.937 105.09,0 0.92,-28.039 -7.85,0 c -2.14,7.489 -5.99,12.762 -11.55,15.809 -5.57,3.031 -14.63,4.562 -27.17,4.562 l -13.42,0 c -2.92,0 -4.75,-0.359 -5.48,-1.05 -0.73,-0.7 -1.09,-2.481 -1.09,-5.34 l 0,-43.93 14.97,0 c 11.39,0 18.96,1.277 22.73,3.84 3.78,2.559 5.73,7.18 5.85,13.879 l 8.03,0.101 0,-44.562 -8.03,0.082 c -0.18,6.879 -2.19,11.609 -6.02,14.199 -3.84,2.59 -11.36,3.879 -22.56,3.879 l -14.97,0 0,-38.527 c 0,-7.301 1.72,-12.34 5.15,-15.114 3.44,-2.769 9.82,-4.148 19.14,-4.148 9.13,0 16.9,2.129 23.33,6.379 6.41,4.269 11.85,10.93 16.29,20 l 8.32,-2.098 -8.04,-32.32 -103.64,0"
         style="fill:#2e3031;fill-opacity:1;fill-rule:nonzero;stroke:none"
         id="path82"
         inkscape:connector-curvature="0" /><path
         d="m 1442,257.898 c 0,-7.847 1.24,-13.046 3.7,-15.609 2.46,-2.559 7.35,-4.258 14.66,-5.109 l 0,-8.219 -57.99,0 0,8.219 c 7.3,0.851 12.19,2.55 14.66,5.109 2.47,2.563 3.7,7.762 3.7,15.609 l 0,74.692 c 0,7.801 -1.22,12.949 -3.66,15.48 -2.44,2.532 -7.33,4.219 -14.7,5.071 l 0,8.218 57.99,0 0,-8.218 c -7.31,-0.852 -12.2,-2.539 -14.66,-5.071 -2.46,-2.531 -3.7,-7.679 -3.7,-15.48 l 0,-33.692 33.33,30.313 c 4.63,4.199 7.68,7.43 9.18,9.68 1.48,2.257 2.23,4.441 2.23,6.578 0,2.429 -0.94,4.34 -2.83,5.711 -1.88,1.359 -4.75,2.199 -8.58,2.511 l 0,7.668 52.14,0 0,-7.668 c -5.84,-1.043 -11.01,-2.679 -15.48,-4.941 -4.48,-2.238 -9.6,-6.078 -15.38,-11.5 l -33.79,-32.41 48.57,-50.399 c 6.34,-6.582 11.64,-11.101 15.94,-13.57 4.29,-2.461 8.72,-3.691 13.28,-3.691 l 0.37,0 0,-8.219 -32.97,0 -60.9,63.008 -5.11,-3.379 0,-30.692"
         style="fill:#2e3031;fill-opacity:1;fill-rule:nonzero;stroke:none"
         id="path84"
         inkscape:connector-curvature="0" /><path
         d="m 1572.3,228.961 0,8.219 c 6.99,0.179 11.79,1.672 14.37,4.468 2.59,2.801 3.89,8.223 3.89,16.25 l 0,95.051 -12.15,0 c -9.3,0 -15.97,-1.5 -19.99,-4.519 -4.02,-3.008 -7.64,-8.621 -10.87,-16.84 l -8.22,0 3.75,29.769 116.69,0 4.84,-29.769 -8.4,0.18 c -4.45,8.16 -8.86,13.73 -13.24,16.71 -4.38,2.981 -10.19,4.469 -17.44,4.469 l -13.24,0 0,-95.051 c 0,-8.089 1.22,-13.457 3.65,-16.109 2.43,-2.648 7.06,-4.187 13.88,-4.609 l 0,-8.219 -57.52,0"
         style="fill:#2e3031;fill-opacity:1;fill-rule:nonzero;stroke:none"
         id="path86"
         inkscape:connector-curvature="0" /><path
         d="m 1676.39,228.961 0,8.219 c 7.31,0.851 12.19,2.55 14.65,5.109 2.47,2.563 3.7,7.762 3.7,15.609 l 0,74.692 c 0,7.801 -1.23,12.949 -3.7,15.48 -2.46,2.532 -7.34,4.219 -14.65,5.071 l 0,8.218 57.98,0 0,-8.218 c -7.36,-0.852 -12.27,-2.539 -14.7,-5.071 -2.44,-2.531 -3.65,-7.679 -3.65,-15.48 l 0,-74.692 c 0,-7.847 1.23,-13.046 3.69,-15.609 2.47,-2.559 7.35,-4.258 14.66,-5.109 l 0,-8.219 -57.98,0"
         style="fill:#2e3031;fill-opacity:1;fill-rule:nonzero;stroke:none"
         id="path88"
         inkscape:connector-curvature="0" /><path
         d="m 1772.53,299.992 c 0,-20.023 3.84,-35.902 11.51,-47.652 7.67,-11.75 17.93,-17.629 30.77,-17.629 12.61,0 22.42,5.07 29.45,15.211 7.03,10.129 10.55,24.328 10.55,42.59 0,18.988 -4,34.32 -11.96,45.968 -7.98,11.661 -18.32,17.489 -31.05,17.489 -12.29,0 -21.91,-4.93 -28.86,-14.789 -6.93,-9.871 -10.41,-23.59 -10.41,-41.188 z m 40.73,-73.683 c -9.25,0 -17.95,1.812 -26.12,5.433 -8.15,3.629 -15.33,8.879 -21.54,15.75 -5.3,5.789 -9.34,12.629 -12.1,20.547 -2.77,7.91 -4.16,16.582 -4.16,26.031 0,9.36 1.41,18.129 4.21,26.289 2.79,8.161 6.87,15.282 12.23,21.36 6.27,7.191 13.61,12.703 22.01,16.543 8.4,3.82 17.34,5.75 26.84,5.75 8.34,0 16.2,-1.551 23.61,-4.66 7.39,-3.11 14.1,-7.68 20.12,-13.704 6.52,-6.507 11.39,-13.828 14.61,-21.949 3.24,-8.14 4.85,-17.16 4.85,-27.078 0,-8.652 -1.3,-16.891 -3.88,-24.75 -2.59,-7.851 -6.29,-14.789 -11.09,-20.812 -6.59,-8.219 -14.03,-14.411 -22.34,-18.539 -8.3,-4.141 -17.39,-6.211 -27.25,-6.211"
         style="fill:#2e3031;fill-opacity:1;fill-rule:nonzero;stroke:none"
         id="path90"
         inkscape:connector-curvature="0" /><path
         d="m 1893.16,228.961 0,8.219 2.1,0 c 6.21,0 10.65,1.89 13.33,5.66 2.67,3.781 4.01,10.051 4.01,18.801 l 0,76.16 c -3.04,4.808 -6.38,8.558 -10.04,11.281 -3.65,2.699 -7.49,4.238 -11.5,4.609 l 0,7.668 30.86,0 77.98,-99.718 0,70.129 c 0,8.531 -1.31,14.179 -3.93,16.98 -2.62,2.809 -7.73,4.449 -15.34,4.941 l 0,7.668 47.75,0 0,-7.668 c -7.36,-1.339 -12.35,-3.461 -14.97,-6.351 -2.61,-2.891 -3.92,-8.449 -3.92,-16.66 l 0,-80.442 c 0,-4.699 0.11,-8.988 0.36,-12.879 0.24,-3.898 0.6,-7.578 1.09,-11.05 l -10.41,0 c -2.19,3.41 -4.7,7.043 -7.53,10.91 -2.83,3.871 -7.14,9.402 -12.92,16.57 l -58.16,73.32 0,-65.468 c 0,-9.071 1.22,-15.43 3.65,-19.129 2.43,-3.68 6.6,-5.512 12.51,-5.512 0.79,0 1.42,0.012 1.88,0.039 0.44,0.031 0.86,0.07 1.23,0.141 l 0,-8.219 -48.03,0"
         style="fill:#2e3031;fill-opacity:1;fill-rule:nonzero;stroke:none"
         id="path92"
         inkscape:connector-curvature="0" /><path
         d="m 5,143.129 2120.81,0 0,2120.8 -2120.81,0 0,-2120.8 z"
         style="fill:none;stroke:#2e3031;stroke-width:10;stroke-linecap:butt;stroke-linejoin:miter;stroke-miterlimit:10;stroke-dasharray:none;stroke-opacity:1"
         id="path94"
         inkscape:connector-curvature="0" /></g></g></svg>