<?xml version="1.0" encoding="UTF-8" standalone="no"?>
<!-- Generator: Adobe Illustrator 19.1.0, SVG Export Plug-In . SVG Version: 6.00 Build 0)  -->

<svg
   xmlns:dc="http://purl.org/dc/elements/1.1/"
   xmlns:cc="http://creativecommons.org/ns#"
   xmlns:rdf="http://www.w3.org/1999/02/22-rdf-syntax-ns#"
   xmlns:svg="http://www.w3.org/2000/svg"
   xmlns="http://www.w3.org/2000/svg"
   xmlns:sodipodi="http://sodipodi.sourceforge.net/DTD/sodipodi-0.dtd"
   xmlns:inkscape="http://www.inkscape.org/namespaces/inkscape"
   version="1.1"
   id="Ebene_1"
   x="0px"
   y="0px"
   viewBox="0.2 190.3 353 453.4"
   style="enable-background:new 0.2 190.3 353 453.4;"
   xml:space="preserve"
   inkscape:version="0.91 r13725"
   sodipodi:docname="musterring_logo1.svg"
   shape-rendering="crispEdges"><metadata
     id="metadata37"><rdf:RDF><cc:Work
         rdf:about=""><dc:format>image/svg+xml</dc:format><dc:type
           rdf:resource="http://purl.org/dc/dcmitype/StillImage" /><dc:title></dc:title></cc:Work></rdf:RDF></metadata><defs
     id="defs35" /><sodipodi:namedview
     pagecolor="#ffffff"
     bordercolor="#666666"
     borderopacity="1"
     objecttolerance="10"
     gridtolerance="10"
     guidetolerance="10"
     inkscape:pageopacity="0"
     inkscape:pageshadow="2"
     inkscape:window-width="2216"
     inkscape:window-height="956"
     id="namedview33"
     showgrid="false"
     inkscape:showpageshadow="false"
     showborder="false"
     inkscape:zoom="1.4722294"
     inkscape:cx="-5.733098"
     inkscape:cy="203.79974"
     inkscape:window-x="0"
     inkscape:window-y="41"
     inkscape:window-maximized="0"
     inkscape:current-layer="Ebene_1" /><style
     type="text/css"
     id="style3">
	.st0{fill-rule:evenodd;clip-rule:evenodd;fill:none;stroke:#000000;stroke-width:5;stroke-miterlimit:3.8637;}
	.st1{fill-rule:evenodd;clip-rule:evenodd;}
	.st2{fill-rule:evenodd;clip-rule:evenodd;fill:none;stroke:#000000;stroke-width:0.1;stroke-miterlimit:3.8637;}
</style><rect
     x="3.8"
     y="192.8"
     class="st0"
     width="346"
     height="346.5"
     id="rect5" /><line
     class="st0"
     x1="353.2"
     y1="641.2"
     x2="0.2"
     y2="641.2"
     id="line7" /><polygon
     class="st1"
     points="1.9,612 11.9,612 11.9,569.3 12,569.1 26,612 36,612 50,569.1 50.1,569.1 50.1,612 60.1,612   60.1,560.1 43.4,560.1 31.1,599.4 30.9,599.4 18.6,560.1 1.9,560.1 "
     id="polygon9" /><path
     class="st1"
     d="M100.6,573.7h-10v18.7c0,4.9-1.6,12.7-8.8,12.7c-6.4,0-6.5-6.3-6.5-11v-20.4h-10v24.2c0,8.6,3.9,15,13,15  c5.2,0,9.5-2.4,12.6-6.1h0.1v5.2h9.4V573.7z"
     id="path11" /><path
     class="st1"
     d="M131.6,574.2c-3.1-0.7-6.2-1.4-10.9-1.4c-7.8,0-15,3.6-15,11.9c0,13.8,17.3,8.7,17.3,16.2c0,3.7-4,4.7-6.5,4.7  c-3.4,0-6.7-1-9.8-2.5l-0.6,8.2c3.6,1,7.5,1.6,11.3,1.6c8.1,0,16.1-3.6,16.1-12.5c0-13.8-17.3-10-17.3-16.1c0-3.3,3.2-4.2,5.9-4.2  c3.6,0,5.9,0.6,8.9,1.6L131.6,574.2z"
     id="path13" /><path
     class="st1"
     d="M141.9,600.4c0,7.6,4.3,12.4,12.1,12.4c3,0,5.3-0.3,7.4-0.9l-0.3-7.9c-1,0.7-2.8,1-4.5,1c-3.8,0-4.7-3-4.7-6.3  V581h8.8v-7.3h-8.8v-10.9l-10,3.2v7.7h-7.4v7.3h7.4V600.4z"
     id="path15" /><path
     class="st1"
     d="M172.1,589.1c0.4-5.1,3.3-9,8.8-9c5.6,0,7.8,4.2,8.1,9H172.1z M195.7,601.7c-3.7,2.1-7.9,3.9-12.7,3.9  c-6.2,0-10.5-3.5-10.9-9.7h26.5c0-13.4-4-23.1-18.2-23.1c-11.9,0-17.8,9.1-17.8,20.2c0,12.6,7.4,19.9,20,19.9c5.4,0,9.5-1,13.2-3.1  V601.7z"
     id="path17" /><path
     class="st1"
     d="M204,612h10v-14.1c0-5.5,0-15.6,8.1-15.6c1.8,0,3.6,0.3,4.5,0.8v-10c-1-0.3-2.1-0.3-3-0.3c-6,0-10,6-10.5,9.6  h-0.1v-8.7H204V612z"
     id="path19" /><path
     class="st1"
     d="M230.3,612h10v-14.1c0-5.5,0-15.6,8.1-15.6c1.8,0,3.6,0.3,4.5,0.8v-10c-1-0.3-2.1-0.3-3-0.3c-6,0-10,6-10.5,9.6  h-0.1v-8.7h-8.8V612z"
     id="path21" /><path
     class="st1"
     d="M256.7,612h10v-38.3h-10V612z M256.7,566.7h10v-9.5h-10V566.7z"
     id="path23" /><path
     class="st1"
     d="M273.9,612h10v-18.7c0-4.9,1.6-12.7,8.8-12.7c6.4,0,6.5,6.3,6.5,11V612h10v-24.2c0-8.6-3.9-15-13-15  c-5.2,0-9.4,1.7-12.6,6.1h-0.2v-5.2h-9.4V612z"
     id="path25" /><path
     class="st1"
     d="M333.1,604.2c-5.7,0-8.5-6.4-8.5-11.6c0-5.9,2.1-12.1,8.9-12.1c5.8,0,8.3,5.4,8.3,11.9  C341.9,598.8,339.4,604.2,333.1,604.2z M342.4,573.7v5.2h-0.1c-2.8-4.4-6.7-6.1-11.8-6.1c-11.5,0-16.2,10.6-16.2,19.9  c0,10.3,4.3,19.3,15.6,19.3c5.6,0,10-2.8,11.9-6.1h0.1c0,6.6-0.5,14.9-11.5,14.9c-3.1,0-8.1-1.7-11.2-3.3l-0.8,8.5  c4.8,2,9.3,2.6,13.2,2.6c16.1,0,20.2-9.8,20.2-20.2v-34.6H342.4z"
     id="path27" /><path
     class="st2"
     d="M219.8,444.4"
     id="path29" /><path
     class="st1"
     d="M94.9,243.9c19.6-0.5,34.4,11.7,36.1,35.5c0,17.2,0,17.8,0,50h15.5c0-27.8,0-23.3,0-52.2  c0.6-18.3-9.2-25.5-15.5-30.5c13.1-0.3,23.8-0.3,43.9,0c23.2,0.5,27.2,20,27.2,30.5c0,22.8,0,18.3,0,52.2h15.5c0-43.3,0-30.5,0-52.2  c0-20-8.3-26.1-15-30.5c15.3,0,26.5-0.3,43.9,0c24.6,1.3,27.2,19.4,26.7,30.5c0,26.7,0,9.4,0,52.2c21.1,1.1,26.7,6.7,32.2,13.9  c8.9,12.2,12.2,29.4,12.2,47.8c0,46.1-31.1,83.3-61.6,85.5c-23.3,1.1-35.5-15-38.3-33.3c0.6-32.8,0-18.3,0-58.9  c-7.8,0-15.5,0-15.5,0v87.7h-55.5v-87.7H131v87.7H75.4v-87.7c-23.9-0.6-41.6-16.7-41.1-58.9c0-16.7,3.3-29.7,15-50.5  C57,261.3,72.7,244.5,94.9,243.9z M68.8,277.2c2.2-0.6,6.7,1.7,6.7,13.3c0.6,10,0,17.2,0,38.9c-10.5,1.1-21.1-6.1-21.1-25  C53.8,291.6,59.9,278.3,68.8,277.2z M273.2,384.4c11.1,0,3.9,0,9.4,0.6c12.8,3.9,14.4,22.2,14.4,28.3c-0.6,21.7-12.2,29.4-15,29.4  c-2.2,0-6.1,2.2-8.9-5.6C273.2,416.6,273.2,401,273.2,384.4z"
     id="path31" /></svg>