<?xml version="1.0" encoding="UTF-8" standalone="no"?>
<!-- Created with Inkscape (http://www.inkscape.org/) -->

<svg
   xmlns:dc="http://purl.org/dc/elements/1.1/"
   xmlns:cc="http://creativecommons.org/ns#"
   xmlns:rdf="http://www.w3.org/1999/02/22-rdf-syntax-ns#"
   xmlns:svg="http://www.w3.org/2000/svg"
   xmlns="http://www.w3.org/2000/svg"
   xmlns:sodipodi="http://sodipodi.sourceforge.net/DTD/sodipodi-0.dtd"
   xmlns:inkscape="http://www.inkscape.org/namespaces/inkscape"
   version="1.0"
   width="1062.9921"
   height="186.69368"
   id="svg2"
   inkscape:version="0.91 r13725"
   sodipodi:docname="nobilia_logo2.svg"
   shape-rendering="crispEdges">
  <metadata
     id="metadata19">
    <rdf:RDF>
      <cc:Work
         rdf:about="">
        <dc:format>image/svg+xml</dc:format>
        <dc:type
           rdf:resource="http://purl.org/dc/dcmitype/StillImage" />
        <dc:title />
      </cc:Work>
    </rdf:RDF>
  </metadata>
  <sodipodi:namedview
     pagecolor="#ffffff"
     bordercolor="#666666"
     borderopacity="1"
     objecttolerance="10"
     gridtolerance="10"
     guidetolerance="10"
     inkscape:pageopacity="0"
     inkscape:pageshadow="2"
     inkscape:window-width="1698"
     inkscape:window-height="751"
     id="namedview17"
     showgrid="false"
     fit-margin-top="0"
     fit-margin-left="0"
     fit-margin-right="0"
     fit-margin-bottom="0"
     inkscape:showpageshadow="false"
     showborder="false"
     inkscape:zoom="1.1724223"
     inkscape:cx="804.00203"
     inkscape:cy="145.69777"
     inkscape:window-x="0"
     inkscape:window-y="41"
     inkscape:window-maximized="0"
     inkscape:current-layer="g36448" />
  <defs
     id="defs4" />
  <g
     transform="translate(-749.74268,-60.454818)"
     id="layer1"
     style="fill:#f20a0f;fill-opacity:1">
    <g
       transform="translate(35.433085,35.452368)"
       id="g36448"
       style="fill:#f20a0f;fill-opacity:1">
      <path
         d="m 1567.3044,207.19784 -65.9528,0 c -0.8191,0 -1.8767,0.26812 -2.7033,-0.26812 -1.3554,-0.54363 -2.1746,-1.35539 -2.7033,-2.70337 -0.5512,-0.81924 -0.2682,-1.89163 -0.2682,-2.7033 l 0,-123.549765 c 0,-0.796868 -0.283,-1.876653 0.2682,-2.695893 0.5287,-1.064985 1.3479,-2.167229 2.4277,-2.695978 1.1022,-0.268118 1.8843,-0.268118 2.9789,-0.268118 l 65.9528,0 c 1.0873,0 2.1672,0 3.2544,0.268118 1.0799,0.528749 1.8619,1.340589 2.1523,2.420374 0.5436,1.094844 0.5436,1.884139 0.5436,2.971497 l 0,123.549765 c 0,1.07979 0,1.88406 -0.2829,2.9789 -0.5511,1.07238 -1.6011,1.88414 -2.7034,2.42777 -0.7968,0.53624 -1.8767,0.26812 -2.964,0.26812"
         style="fill:#f20a0f;fill-opacity:1;fill-rule:nonzero;stroke:none"
         id="path35916"
         inkscape:connector-curvature="0" />
      <path
         d="m 1565.9564,27.12201 -61.0375,0.02977 -2.748,0 c -0.8193,0 -1.9141,0 -2.696,0.551121 -1.1022,0.53615 -2.182,1.34799 -2.7257,2.435175 -0.2755,1.079957 -0.2755,2.152343 -0.2755,2.964096 l 0,22.974674 c 0,1.094843 0,1.906511 0.2755,2.971496 0.5437,1.087358 1.3629,2.174629 2.7257,2.450147 0.7819,0.260718 1.8767,0.543636 2.696,0.543636 l 64.3143,0 c 0.8192,0 2.1672,-0.282918 2.9864,-0.543636 1.0872,-0.551122 2.1671,-1.362789 2.7033,-2.450147 0.2458,-1.064985 0.2458,-1.876653 0.2458,-2.971496 l 0,-22.974674 c 0,-0.811753 0,-1.884139 -0.2458,-2.964096 -0.5362,-1.087185 -1.6161,-1.899025 -2.9938,-2.435175 -0.7894,-0.551121 -1.2214,-0.320175 -2.048,-0.580893 l -0.6479,0.02977 -0.5288,-0.02977"
         style="fill:#f20a0f;fill-opacity:1;fill-rule:nonzero;stroke:none"
         id="path35926"
         inkscape:connector-curvature="0" />
      <path
         d="m 831.20992,140.59043 c 0,-3.24702 -0.32017,-5.29499 -1.40753,-8.26648 -2.69589,-7.3057 -10.26979,-9.47276 -17.5606,-9.47276 -7.5739,0 -15.67647,2.69581 -18.91591,10.2772 -0.81184,2.71069 -0.95338,4.37885 -1.2289,7.33546 0,1.09476 0,2.18203 0,3.2619 l 0,56.77775 c 0,1.07247 0,1.87674 -0.53615,2.94912 -0.26812,1.36279 -1.62351,2.44275 -2.9789,2.71078 -0.80427,0.26072 -1.61611,0 -2.42037,0 l -65.96767,0 c -0.80435,0 -1.88423,0.26072 -2.71087,-0.26803 -1.34041,-0.54372 -2.42777,-1.61611 -2.97141,-2.97898 -0.26803,-0.80427 0,-1.62342 0,-2.41289 l 0,-60.03965 -0.17863,-61.261061 0.0446,-1.22873 c 0,-0.796867 -0.26812,-1.876739 0.26071,-2.695978 0.55104,-1.355304 1.63091,-2.435175 2.99379,-2.695893 0.80426,-0.268118 1.60104,-0.268118 2.43526,-0.268118 l 65.41654,0 c 1.07239,0 1.89163,0 2.96393,0.268118 1.08735,0.536236 2.71826,1.899111 2.71826,3.239614 0.25323,0.81924 0.25323,1.616107 0.25323,2.152257 l 0,13.263575 c 1.9066,-5.950393 10.26971,-10.284765 15.1552,-13.263575 10.80595,-6.211111 23.78643,-7.28341 35.94036,-7.819646 10.54531,-0.283003 21.08314,0.275518 31.07732,2.964011 18.66285,4.587431 30.57095,19.735145 33.54245,38.122476 1.07238,7.03757 1.60853,14.06035 1.60853,21.08305 l 0,9.17512 0,60.02467 c 0,1.07987 0,1.89911 -0.26803,2.9789 -0.54372,1.34059 -1.88423,2.43534 -3.24701,2.69589 -0.52875,0.283 -1.34799,0 -2.15975,0 l -65.95269,0 c -0.82664,0 -1.9066,0.283 -2.71087,0 -1.34059,-0.81167 -2.69589,-1.62342 -2.97889,-3.24693 -0.26064,-0.81175 -0.26064,-1.61602 -0.26064,-2.42786 l 0,-56.77026 c 0,-1.07238 0,-2.15974 0,-3.25441 l 0.0447,-0.90864"
         style="fill:#f20a0f;fill-opacity:1;fill-rule:nonzero;stroke:none"
         id="path35930"
         inkscape:connector-curvature="0" />
      <path
         d="m 1405.6113,33.111123 0,168.411927 c 0,0.81176 0,2.16715 0.2757,2.7033 0.5361,1.6161 1.884,2.15974 2.964,2.97149 0.8191,0.28292 1.8841,0 2.7107,0 l 65.6847,0 c 0.8043,0 1.899,0.28292 2.7033,-0.26063 1.348,-0.55112 2.4278,-1.36288 2.9715,-2.71086 0.2905,-0.53615 0.2905,-1.89154 0.2905,-2.7033 l 0,-168.411927 c 0,-0.804353 0,-2.159657 -0.5511,-2.971496 -0.2831,-1.072386 -1.6235,-1.899025 -2.7109,-2.435175 -0.8043,-0.543722 -1.899,-0.275604 -2.7033,-0.543722 l -65.6847,0 c -0.8266,0 -1.8916,0 -2.4427,0.268118 -1.616,0.811754 -2.6959,1.638393 -3.232,2.971497 -0.2757,0.819067 -0.2757,1.906425 -0.2757,2.710778"
         style="fill:#f20a0f;fill-opacity:1;fill-rule:nonzero;stroke:none"
         id="path35934"
         inkscape:connector-curvature="0" />
      <path
         d="m 1387.4989,207.19784 -65.9602,0 c -0.8117,0 -1.8917,0.28292 -2.7108,-0.26072 -1.3405,-0.55103 -2.1598,-1.36279 -2.7109,-2.71077 -0.5286,-0.80427 -0.2605,-1.89163 -0.2605,-2.7033 l 0,-123.549765 c 0,-0.796868 -0.2681,-1.876653 0.2605,-2.695893 0.5511,-1.064985 1.3704,-2.159657 2.4278,-2.695978 1.1022,-0.268118 1.9066,-0.268118 2.9939,-0.268118 l 65.9602,0 c 1.0724,0 2.1596,0 3.2396,0.268118 1.0798,0.536321 1.8991,1.340589 2.1596,2.420374 0.5511,1.094844 0.5511,1.899111 0.5511,2.971497 l 0,123.549765 c 0,1.07979 0,1.89903 -0.283,2.9789 -0.5286,1.07238 -1.6235,1.88414 -2.6959,2.43517 -0.8118,0.54364 -1.899,0.26072 -2.9714,0.26072"
         style="fill:#f20a0f;fill-opacity:1;fill-rule:nonzero;stroke:none"
         id="path35938"
         inkscape:connector-curvature="0" />
      <path
         d="m 1385.4554,27.230772 -60.345,-0.07443 -2.7555,0 c -0.8192,0 -1.8991,0 -2.7108,0.551122 -1.1021,0.528664 -2.1522,1.362789 -2.7182,2.435174 -0.2607,1.072386 -0.2607,2.159657 -0.2607,2.971497 l 0,22.974673 c 0,1.087358 0,1.891625 0.2607,2.964011 0.566,1.079871 1.3628,2.167142 2.7182,2.44266 0.8117,0.268118 1.8916,0.551122 2.7108,0.551122 l 64.3145,0 c 0.8266,0 2.182,-0.283004 2.9937,-0.551122 1.0724,-0.536149 2.1522,-1.362789 2.7033,-2.44266 0.2682,-1.072386 0.2682,-1.876653 0.2682,-2.964011 l 0,-22.974673 c 0,-0.81184 0,-1.899111 -0.2682,-2.971497 -0.5511,-1.072385 -1.6309,-1.90651 -2.9789,-2.435174 -1.0054,-0.476692 -0.8267,-0.0894 -1.6309,-0.357519 l -1.1766,-0.05963 -1.1246,-0.05954"
         style="fill:#f20a0f;fill-opacity:1;fill-rule:nonzero;stroke:none"
         id="path35942"
         inkscape:connector-curvature="0" />
      <path
         d="m 1696.7449,160.43063 c -1.5937,1.89911 -3.5151,3.79814 -5.6822,5.41425 -2.964,1.88405 -6.4792,2.98629 -9.9793,3.52244 -4.595,0.54364 -9.741,0 -14.0678,-1.89894 -5.66,-2.43534 -9.7262,-7.5739 -11.6401,-13.24877 -1.8767,-5.40667 -2.1522,-11.34958 -1.6012,-17.02437 0.5437,-7.03018 3.2321,-14.06776 9.1751,-18.11912 4.8779,-3.51505 10.8208,-3.78317 16.786,-3.78317 4.0439,0.26812 8.0803,1.07239 11.3273,3.25442 2.1671,1.07978 3.7981,2.68849 5.4215,4.58011 4.0439,5.40668 5.161,12.43685 5.161,18.65528 0,6.47906 -1.1171,13.23372 -4.9003,18.64787 z m 78.6652,-86.767882 c -0.8191,-0.819068 -2.1522,-1.347903 -3.232,-1.347903 -0.5586,0 -0.8043,0 -1.3554,0 l -65.1412,0 c -0.5659,0 -0.834,0 -1.3627,0 -1.0873,0 -2.4278,0.528835 -3.2471,1.347903 -0.7968,0.811839 -1.3627,1.891711 -1.3627,3.239614 0,0.536236 0,0.804268 0,1.072386 l 0,10.292164 c -1.0724,-0.543722 -1.8917,-1.623507 -2.4055,-2.450147 -1.9065,-1.884225 -4.0737,-3.50016 -6.2408,-4.863121 -4.6173,-2.904467 -9.7186,-5.674789 -15.1255,-7.290896 -9.1972,-2.703293 -18.9308,-3.50756 -28.3963,-3.50756 -11.6176,0 -23.2353,1.340503 -34.3168,5.667389 -17.3148,7.022692 -28.3815,23.242791 -31.621,41.369403 -1.8991,9.99419 -2.4576,20.5321 -1.8991,30.53369 1.0799,20.27886 7.8346,40.55764 25.9611,51.89982 12.1391,7.57381 26.475,9.47293 40.5428,9.47293 8.1101,0.27551 16.2127,0 24.3153,-1.34799 7.2834,-1.07987 14.3358,-3.79814 20.5395,-7.84202 1.6458,-1.08719 2.7257,-1.89903 4.0885,-2.97881 1.5937,-1.34799 3.2173,-2.96393 4.5578,-4.31949 l 0,8.91441 c 0,0.2756 0,0.80426 0,1.07987 0,1.3479 0.5659,2.43526 1.3627,3.23953 1.0874,1.09484 2.1598,1.35538 3.2471,1.35538 0.5287,0 0.7968,0 1.3627,0 l 65.1412,0 c 0.5511,0 0.7968,0 1.3554,0 1.0798,0 2.4129,-0.26054 3.232,-1.35538 0.8266,-0.80427 1.363,-1.89163 1.363,-3.23953 0,-0.27561 0,-0.80427 0,-1.07987 l 0,-123.549772 c 0,-0.268118 0,-0.796868 0,-1.072386 0,-1.347903 -0.5364,-2.427775 -1.363,-3.239614"
         style="fill:#f20a0f;fill-opacity:1;fill-rule:nonzero;stroke:none"
         id="path35952"
         inkscape:connector-curvature="0" />
      <path
         d="m 1034.9986,143.13591 c -0.2756,7.02269 -1.631,14.06044 -6.494,19.45971 -4.8854,5.13107 -11.6326,6.77695 -18.3798,6.77695 -5.4066,0 -11.36452,-1.09476 -15.95953,-4.34177 -6.47905,-5.41424 -8.37068,-14.06044 -8.91423,-22.16301 0,-0.54363 0,-0.81175 0,-1.37027 0,-7.01529 1.35539,-15.66158 6.49395,-21.33637 4.86303,-4.87052 11.88581,-6.22591 18.37981,-6.22591 4.8556,0 10.2697,0.81915 14.5892,3.2545 8.3855,5.13107 10.5453,15.13274 10.2846,24.30778 l 0,1.63839 z m 71.0765,-7.02278 c -1.065,-22.98216 -9.1826,-44.877045 -30.8167,-56.502227 -19.7277,-10.537824 -43.2313,-11.893213 -65.1336,-11.893213 -13.51678,0 -27.56965,0.53615 -40.81834,3.507646 -21.08313,4.3268 -39.74589,14.86471 -48.93581,35.150974 -4.58761,10.25491 -5.66739,21.35126 -6.21851,32.1646 0,1.08735 0.0596,1.30333 0.0596,2.3832 l -0.0596,0.57341 c 0.2756,14.07533 3.51513,28.4112 11.61769,40.0289 15.66906,23.24287 44.06538,28.92506 70.83819,30.00493 10.79858,0.25324 21.34388,0.25324 32.17208,-0.2756 29.1784,-1.62351 58.6545,-11.08146 71.3595,-39.47038 4.0588,-9.45046 5.9355,-19.98837 6.2259,-30.28785 0,-1.86926 0,-3.77585 -0.2904,-5.38439"
         style="fill:#f20a0f;fill-opacity:1;fill-rule:nonzero;stroke:none"
         id="path35956"
         inkscape:connector-curvature="0" />
      <path
         d="m 1234.496,151.79407 c -1.0872,3.77576 -2.7033,7.55901 -5.4216,10.53791 -4.3119,5.13107 -11.0591,7.03758 -17.5681,7.03758 -6.479,0 -12.9879,-1.90651 -17.568,-7.03758 -5.1311,-5.40676 -6.4865,-13.24869 -6.4865,-20.55447 l 0.052,-1.66816 c 0,-7.2983 1.9065,-15.13283 7.3058,-20.5543 4.5949,-4.312 10.5377,-5.39927 16.7562,-5.67488 5.9579,0 12.4444,1.36288 16.7564,5.67488 3.0012,2.70329 5.1459,6.49385 6.2259,10.81325 0.8116,3.26199 1.0202,7.90156 1.0202,11.40921 0,3.52253 -0.2681,6.77695 -1.0724,10.01656 z m 72.7298,-34.59985 c -3.2694,-18.134101 -14.3583,-34.346628 -31.6583,-41.369406 -10.7985,-4.595004 -26.1846,-7.05255 -37.5415,-7.05255 l -3.4778,-0.02977 c -9.4581,0.54355 -19.1916,2.159657 -27.8453,5.942821 -6.4865,2.97141 -12.1539,7.037664 -17.2925,12.161331 l 0,-55.139354 c 0,-0.275517 0,-0.543635 0,-1.079785 -0.2755,-1.355475 -0.5362,-2.442747 -1.3629,-3.247014 -1.0724,-1.087358 -2.1596,-1.087358 -3.2321,-1.362961 -0.5436,0 -0.8191,-0.260546 -1.0798,-0.260546 l -65.9751,0 c -0.2756,0 -0.5362,0.260546 -1.065,0.260546 -1.3628,0 -2.1672,0.275603 -3.2545,1.362961 -1.0798,0.804267 -1.3329,1.891539 -1.3329,3.247014 -0.2906,0.260546 0,0.804268 0,1.079785 l 0.03,107.270128 -0.052,1.95116 0,1.16919 -0.052,59.42898 c 0,0.27561 -0.268,0.80436 0,1.07987 0,1.34051 0.2682,2.43518 1.3554,3.23962 1.0725,1.09467 1.8842,1.3479 3.247,1.3479 0.5362,0 0.7968,0 1.0649,0 l 65.156,0 c 0.5437,0 0.8043,0 1.3628,0 1.0724,0 2.1524,-0.25323 3.2322,-1.3479 0.8042,-0.80444 1.3554,-1.89911 1.3554,-3.23962 0,-0.27551 0,-0.80426 0,-1.07987 l 0,-8.9218 c 2.1596,2.9715 5.6747,5.13855 8.6314,7.01538 10.0164,6.76946 21.098,8.66848 32.9912,9.47292 1.3629,0 2.7034,0 4.0662,0 3.7757,0 7.559,0.27552 11.3347,0 15.9668,-0.80444 31.0997,-4.05145 43.5291,-14.86479 13.7923,-11.89322 18.6628,-29.72942 19.7427,-47.29751 0.551,-9.73347 0,-20.01066 -1.8767,-29.73673"
         style="fill:#f20a0f;fill-opacity:1;fill-rule:nonzero;stroke:none"
         id="path35960"
         inkscape:connector-curvature="0" />
    </g>
  </g>
</svg>
