<?xml version="1.0" encoding="UTF-8" standalone="no"?>
<svg
   xmlns:dc="http://purl.org/dc/elements/1.1/"
   xmlns:cc="http://creativecommons.org/ns#"
   xmlns:rdf="http://www.w3.org/1999/02/22-rdf-syntax-ns#"
   xmlns:svg="http://www.w3.org/2000/svg"
   xmlns="http://www.w3.org/2000/svg"
   xmlns:sodipodi="http://sodipodi.sourceforge.net/DTD/sodipodi-0.dtd"
   xmlns:inkscape="http://www.inkscape.org/namespaces/inkscape"
   version="1.0"
   width="2084.2pt"
   height="257.10001pt"
   viewBox="0 0 2084.2 257.10001"
   preserveAspectRatio="xMidYMid meet"
   id="svg2"
   inkscape:version="0.91 r13725"
   sodipodi:docname="imperia_logo.svg">
  <defs
     id="defs24" />
  <sodipodi:namedview
     pagecolor="#ffffff"
     bordercolor="#666666"
     borderopacity="1"
     objecttolerance="10"
     gridtolerance="10"
     guidetolerance="10"
     inkscape:pageopacity="0"
     inkscape:pageshadow="2"
     inkscape:window-width="2348"
     inkscape:window-height="1134"
     id="namedview22"
     showgrid="false"
     fit-margin-top="0"
     fit-margin-left="0"
     fit-margin-right="0"
     fit-margin-bottom="0"
     showborder="false"
     inkscape:showpageshadow="false"
     inkscape:zoom="0.15918713"
     inkscape:cx="127.20217"
     inkscape:cy="144.375"
     inkscape:window-x="0"
     inkscape:window-y="41"
     inkscape:window-maximized="0"
     inkscape:current-layer="svg2" />
  <metadata
     id="metadata4">
Created by potrace 1.14, written by Peter Selinger 2001-2017
<rdf:RDF>
  <cc:Work
     rdf:about="">
    <dc:format>image/svg+xml</dc:format>
    <dc:type
       rdf:resource="http://purl.org/dc/dcmitype/StillImage" />
    <dc:title></dc:title>
  </cc:Work>
</rdf:RDF>
</metadata>
  <g
     transform="matrix(0.1,0,0,-0.1,-126.9,412.1)"
     id="g6"
     style="fill:#f20a0f;stroke:none;fill-opacity:1">
    <path
       d="m 1270,3985 0,-134 38,-6 c 88,-15 122,-36 151,-92 8,-16 11,-274 11,-920 0,-857 -1,-900 -19,-933 -23,-43 -66,-69 -128,-78 l -48,-7 -3,-133 -3,-132 631,0 631,0 -3,132 -3,133 -49,7 c -53,7 -88,28 -120,72 -19,24 -21,44 -24,179 l -3,152 360,295 c 198,162 365,296 371,298 7,3 10,-135 10,-432 0,-376 -2,-441 -16,-476 -19,-48 -65,-79 -132,-88 l -47,-7 -3,-133 -3,-132 631,0 631,0 -3,132 -3,133 -48,7 c -63,9 -108,36 -129,78 -17,33 -18,98 -18,933 0,984 -3,932 59,976 22,16 106,41 137,41 2,0 4,61 4,135 l 0,135 -630,0 -630,0 0,-135 c 0,-74 2,-135 4,-135 2,0 27,-5 57,-10 67,-13 94,-31 119,-80 17,-34 20,-59 20,-195 0,-149 -1,-156 -22,-174 -13,-11 -115,-95 -228,-187 -113,-92 -266,-219 -341,-281 -76,-62 -140,-113 -143,-113 -3,0 -6,205 -6,455 0,432 1,458 19,494 25,47 57,69 122,81 29,6 53,10 55,10 2,0 4,61 4,135 l 0,135 -630,0 -630,0 0,-135 z"
       id="path8"
       inkscape:connector-curvature="0"
       style="fill:#f20a0f;fill-opacity:1" />
    <path
       d="m 4570,3986 0,-134 43,-7 c 56,-10 113,-40 133,-70 19,-29 16,-115 -10,-280 -8,-55 -36,-246 -60,-425 -117,-849 -137,-989 -147,-1040 -24,-118 -76,-177 -191,-214 -16,-5 -18,-20 -18,-136 l 0,-130 460,0 461,0 -3,131 -3,132 -48,12 c -66,17 -97,42 -127,100 l -24,49 53,421 c 29,231 62,490 72,575 24,203 29,228 39,210 4,-8 38,-118 75,-245 59,-202 217,-739 231,-787 5,-17 29,-18 319,-18 l 314,0 12,43 c 6,23 36,128 66,232 30,105 93,322 139,484 46,162 86,297 89,299 8,8 12,-16 44,-233 16,-115 55,-379 86,-585 33,-218 55,-391 52,-414 -9,-66 -65,-120 -140,-135 l -32,-7 -3,-132 -3,-132 606,0 605,0 0,134 0,134 -32,6 c -44,9 -95,50 -118,97 -22,43 -36,121 -105,584 -25,171 -55,364 -65,430 -11,66 -31,197 -45,290 -13,94 -36,243 -49,333 -14,90 -22,171 -20,180 20,61 60,93 137,107 l 37,7 0,134 0,134 -567,-2 -568,-3 -102,-350 c -57,-192 -115,-390 -129,-440 -42,-146 -28,-168 -144,225 -28,96 -64,218 -80,270 -16,52 -42,140 -58,195 l -29,100 -577,3 -576,2 0,-134 z"
       id="path10"
       inkscape:connector-curvature="0"
       style="fill:#f20a0f;fill-opacity:1" />
    <path
       d="m 7860,3985 0,-134 38,-6 c 92,-16 129,-40 151,-98 8,-19 11,-313 11,-920 0,-851 -1,-894 -19,-927 -23,-43 -66,-69 -128,-78 l -48,-7 -3,-133 -3,-132 631,0 630,0 0,135 0,135 -38,0 c -54,0 -122,38 -144,80 -17,33 -18,82 -18,902 l 0,868 370,0 370,0 -2,-874 c -3,-866 -3,-875 -24,-902 -34,-46 -70,-67 -123,-72 l -51,-5 0,-133 0,-134 628,0 627,0 -3,135 -3,135 -35,0 c -38,0 -87,21 -121,53 -43,39 -44,76 -41,992 3,836 4,871 22,902 23,37 82,73 122,74 58,1 59,3 59,147 l 0,132 -1427,0 -1428,0 0,-135 z"
       id="path12"
       inkscape:connector-curvature="0"
       style="fill:#f20a0f;fill-opacity:1" />
    <path
       d="m 10960,3985 0,-134 38,-6 c 74,-12 122,-42 143,-89 19,-43 19,-71 17,-940 -3,-886 -3,-895 -24,-922 -34,-46 -70,-67 -123,-72 l -51,-5 0,-133 0,-134 1185,0 1185,0 0,350 0,350 -155,0 c -116,0 -157,-3 -159,-12 -23,-83 -36,-109 -74,-150 -24,-25 -64,-57 -90,-70 -47,-23 -48,-23 -442,-23 l -395,0 0,365 0,365 230,3 c 155,2 244,-1 273,-9 56,-15 100,-60 114,-115 l 12,-44 143,0 143,0 0,385 0,385 -144,0 -144,0 -7,-42 c -5,-30 -19,-54 -44,-79 -52,-52 -102,-60 -361,-57 l -215,3 -3,258 -2,257 388,0 388,0 55,-27 c 63,-33 100,-80 133,-174 l 24,-64 153,0 154,0 3,358 2,357 -1175,0 -1175,0 0,-135 z"
       id="path14"
       inkscape:connector-curvature="0"
       style="fill:#f20a0f;fill-opacity:1" />
    <path
       d="m 13601,3987 c -1,-132 -1,-135 21,-141 13,-3 33,-6 46,-6 37,0 96,-36 117,-72 20,-32 20,-51 20,-940 0,-900 0,-907 -21,-934 -33,-45 -65,-63 -124,-71 l -55,-8 -3,-133 -3,-132 631,0 630,0 0,134 0,133 -51,5 c -53,5 -89,26 -123,72 -19,25 -21,44 -24,217 -2,104 -2,189 0,189 2,1 32,3 68,6 702,54 1224,360 1358,796 83,268 25,544 -155,738 -116,125 -264,201 -493,252 -92,20 -124,21 -967,25 l -871,4 -1,-134 z m 1389,-336 c 158,-50 246,-162 257,-331 15,-213 -124,-435 -338,-541 -66,-33 -206,-66 -233,-56 -14,6 -16,56 -16,476 l 0,470 23,5 c 53,11 243,-2 307,-23 z"
       id="path16"
       inkscape:connector-curvature="0"
       style="fill:#f20a0f;fill-opacity:1" />
    <path
       d="m 16380,3986 c 0,-149 -6,-137 73,-151 49,-8 104,-57 117,-103 14,-53 14,-1743 -1,-1797 -19,-71 -80,-115 -161,-115 l -28,0 0,-135 0,-135 625,0 625,0 0,134 0,133 -52,6 c -56,7 -89,26 -122,70 -17,24 -20,46 -24,175 -1,81 1,152 5,158 4,5 46,41 93,79 47,38 210,172 363,297 l 277,228 0,-447 c 0,-407 -2,-451 -18,-483 -21,-42 -66,-69 -129,-78 l -48,-7 -3,-133 -3,-132 631,0 631,0 -3,132 -3,133 -46,6 c -70,10 -108,34 -130,82 -18,40 -19,79 -19,930 0,978 -3,932 60,977 22,16 106,40 136,40 2,0 4,61 4,135 l 0,135 -630,0 -630,0 0,-135 0,-134 38,-6 c 92,-16 129,-40 151,-98 6,-16 11,-97 11,-185 l -1,-157 -196,-160 c -108,-88 -237,-194 -287,-235 -221,-183 -246,-202 -252,-187 -3,8 -4,216 -2,463 3,445 3,449 25,485 23,37 64,59 137,75 l 39,9 -1,118 c 0,64 -1,124 -1,132 -1,13 -77,15 -626,15 l -625,0 0,-134 z"
       id="path18"
       inkscape:connector-curvature="0"
       style="fill:#f20a0f;fill-opacity:1" />
    <path
       d="m 20321,4109 c -41,-5 -116,-20 -168,-34 -278,-74 -469,-244 -550,-490 -24,-72 -27,-95 -27,-235 -1,-174 10,-234 68,-356 68,-144 226,-279 384,-328 12,-4 22,-13 22,-19 0,-7 -24,-49 -54,-94 -29,-46 -122,-193 -207,-329 -85,-135 -174,-269 -198,-296 -44,-49 -142,-108 -181,-108 -19,0 -20,-6 -20,-135 l 0,-135 465,0 465,0 235,470 235,470 130,0 130,0 0,-267 c 0,-148 -5,-284 -10,-304 -13,-45 -59,-89 -102,-98 l -33,-7 -3,-132 -3,-132 606,0 606,0 -3,132 -3,133 -54,7 c -29,5 -67,18 -83,30 -60,42 -58,6 -58,977 0,606 3,899 11,918 22,58 59,82 152,98 l 37,6 0,134 0,135 -857,-1 c -472,-1 -891,-5 -932,-10 z m 729,-809 0,-370 -117,0 c -218,0 -315,30 -409,124 -78,79 -98,138 -92,264 7,141 63,239 170,297 78,43 137,53 301,54 l 147,1 0,-370 z"
       id="path20"
       inkscape:connector-curvature="0"
       style="fill:#f20a0f;fill-opacity:1" />
  </g>
</svg>
