<?xml version="1.0" encoding="UTF-8" standalone="no"?>
<svg
   xmlns:dc="http://purl.org/dc/elements/1.1/"
   xmlns:cc="http://creativecommons.org/ns#"
   xmlns:rdf="http://www.w3.org/1999/02/22-rdf-syntax-ns#"
   xmlns:svg="http://www.w3.org/2000/svg"
   xmlns="http://www.w3.org/2000/svg"
   xmlns:xlink="http://www.w3.org/1999/xlink"
   xmlns:sodipodi="http://sodipodi.sourceforge.net/DTD/sodipodi-0.dtd"
   xmlns:inkscape="http://www.inkscape.org/namespaces/inkscape"
   height="32.000004"
   id="svg2"
   overflow="visible"
   style="overflow:visible;fill-rule:evenodd;stroke-width:0.50099999;stroke-linejoin:bevel"
   version="1.1"
   viewBox="0 0 25.600005 25.600004"
   width="32"
   inkscape:version="0.91 r13725"
   sodipodi:docname="inst.svg">
  <metadata
     id="metadata686">
    <rdf:RDF>
      <cc:Work
         rdf:about="">
        <dc:format>image/svg+xml</dc:format>
        <dc:type
           rdf:resource="http://purl.org/dc/dcmitype/StillImage" />
        <dc:title />
      </cc:Work>
    </rdf:RDF>
  </metadata>
  <sodipodi:namedview
     pagecolor="#ffffff"
     bordercolor="#666666"
     borderopacity="1"
     objecttolerance="10"
     gridtolerance="10"
     guidetolerance="10"
     inkscape:pageopacity="0"
     inkscape:pageshadow="2"
     inkscape:window-width="3423"
     inkscape:window-height="1776"
     id="namedview684"
     showgrid="false"
     inkscape:showpageshadow="false"
     showborder="false"
     fit-margin-top="0"
     fit-margin-left="0"
     fit-margin-right="0"
     fit-margin-bottom="0"
     inkscape:zoom="29.5"
     inkscape:cx="7.9126572"
     inkscape:cy="12.320531"
     inkscape:window-x="0"
     inkscape:window-y="41"
     inkscape:window-maximized="0"
     inkscape:current-layer="svg2" />
  <script
     id="script3301"
     xlink:href="" />
  <script
     id="script3299"
     xlink:href="" />
  <defs
     id="defs4">
    <marker
       id="DefaultArrow2"
       markerHeight="1"
       markerUnits="strokeWidth"
       markerWidth="1"
       orient="auto"
       overflow="visible"
       style="overflow:visible"
       viewBox="0 0 1 1">
      <g
         id="g7"
         transform="scale(0.00925926,0.00925926)">
        <path
           d="M -9,54 -9,-54 117,0 Z"
           id="path9"
           inkscape:connector-curvature="0" />
      </g>
    </marker>
    <marker
       id="DefaultArrow3"
       markerHeight="1"
       markerUnits="strokeWidth"
       markerWidth="1"
       orient="auto"
       overflow="visible"
       style="overflow:visible"
       viewBox="0 0 1 1">
      <g
         id="g12"
         transform="scale(0.00925926,0.00925926)">
        <path
           d="M -27,54 -9,0 -27,-54 135,0 Z"
           id="path14"
           inkscape:connector-curvature="0" />
      </g>
    </marker>
    <marker
       id="DefaultArrow4"
       markerHeight="1"
       markerUnits="strokeWidth"
       markerWidth="1"
       orient="auto"
       overflow="visible"
       style="overflow:visible"
       viewBox="0 0 1 1">
      <g
         id="g17"
         transform="scale(0.00925926,0.00925926)">
        <path
           d="m -9,0 0,-45 c 0,-6.708 11.808,-11.58 18,-9 l 108,45 c 3.916,1.631 9,4.758 9,9 0,4.242 -5.084,7.369 -9,9 L 9,54 C 2.808,56.58 -9,51.708 -9,45 Z"
           id="path19"
           inkscape:connector-curvature="0" />
      </g>
    </marker>
    <marker
       id="DefaultArrow5"
       markerHeight="1"
       markerUnits="strokeWidth"
       markerWidth="1"
       orient="auto"
       overflow="visible"
       style="overflow:visible"
       viewBox="0 0 1 1">
      <g
         id="g22"
         transform="scale(0.00925926,0.00925926)">
        <path
           d="M -54,0 C -54,29.807 -29.807,54 0,54 29.807,54 54,29.807 54,0 54,-29.807 29.807,-54 0,-54 -29.807,-54 -54,-29.807 -54,0 Z"
           id="path24"
           inkscape:connector-curvature="0" />
      </g>
    </marker>
    <marker
       id="DefaultArrow6"
       markerHeight="1"
       markerUnits="strokeWidth"
       markerWidth="1"
       orient="auto"
       overflow="visible"
       style="overflow:visible"
       viewBox="0 0 1 1">
      <g
         id="g27"
         transform="scale(0.00925926,0.00925926)">
        <path
           d="M -63,0 0,63 63,0 0,-63 Z"
           id="path29"
           inkscape:connector-curvature="0" />
      </g>
    </marker>
    <marker
       id="DefaultArrow7"
       markerHeight="1"
       markerUnits="strokeWidth"
       markerWidth="1"
       orient="auto"
       overflow="visible"
       style="overflow:visible"
       viewBox="0 0 1 1">
      <g
         id="g32"
         transform="scale(0.00925926,0.00925926)">
        <path
           d="m 18,-54 90,0 L 63,0 108,54 18,54 -36,0 Z"
           id="path34"
           inkscape:connector-curvature="0" />
      </g>
    </marker>
    <marker
       id="DefaultArrow8"
       markerHeight="1"
       markerUnits="strokeWidth"
       markerWidth="1"
       orient="auto"
       overflow="visible"
       style="overflow:visible"
       viewBox="0 0 1 1">
      <g
         id="g37"
         transform="scale(0.00925926,0.00925926)">
        <path
           d="m -36,0 54,-54 36,0 -36,36 9,0 36,-36 36,0 -36,36 9,0 36,-36 36,0 -54,54 54,54 -36,0 -36,-36 -9,0 36,36 -36,0 -36,-36 -9,0 36,36 -36,0 z"
           id="path39"
           inkscape:connector-curvature="0" />
      </g>
    </marker>
    <marker
       id="DefaultArrow9"
       markerHeight="1"
       markerUnits="strokeWidth"
       markerWidth="1"
       orient="auto"
       overflow="visible"
       style="overflow:visible"
       viewBox="0 0 1 1">
      <g
         id="g42"
         transform="scale(0.00925926,0.00925926)">
        <path
           d="M 0,45 -45,0 0,-45 45,0 Z M 0,63 -63,0 0,-63 63,0 Z"
           id="path44"
           inkscape:connector-curvature="0" />
      </g>
    </marker>
    <filter
       id="StainedFilter"
       style="color-interpolation-filters:sRGB">
      <feBlend
         id="feBlend47"
         in="SourceGraphic"
         in2="BackgroundImage"
         mode="multiply"
         result="blend" />
      <feComposite
         id="feComposite49"
         in="blend"
         in2="SourceAlpha"
         operator="in"
         result="comp" />
    </filter>
    <filter
       id="BleachFilter"
       style="color-interpolation-filters:sRGB">
      <feBlend
         id="feBlend52"
         in="SourceGraphic"
         in2="BackgroundImage"
         mode="screen"
         result="blend" />
      <feComposite
         id="feComposite54"
         in="blend"
         in2="SourceAlpha"
         operator="in"
         result="comp" />
    </filter>
    <filter
       id="InvertTransparencyBitmapFilter"
       style="color-interpolation-filters:sRGB">
      <feComponentTransfer
         id="feComponentTransfer57">
        <feFuncR
           amplitude="1.055"
           exponent=".416666666"
           id="feFuncR59"
           offset="-0.055"
           type="gamma" />
        <feFuncG
           amplitude="1.055"
           exponent=".416666666"
           id="feFuncG61"
           offset="-0.055"
           type="gamma" />
        <feFuncB
           amplitude="1.055"
           exponent=".416666666"
           id="feFuncB63"
           offset="-0.055"
           type="gamma" />
      </feComponentTransfer>
      <feComponentTransfer
         id="feComponentTransfer65">
        <feFuncR
           id="feFuncR67"
           intercept="1"
           slope="-1"
           type="linear" />
        <feFuncG
           id="feFuncG69"
           intercept="1"
           slope="-1"
           type="linear" />
        <feFuncB
           id="feFuncB71"
           intercept="1"
           slope="-1"
           type="linear" />
        <feFuncA
           id="feFuncA73"
           intercept="0"
           slope="1"
           type="linear" />
      </feComponentTransfer>
      <feComponentTransfer
         id="feComponentTransfer75">
        <feFuncR
           amplitude="1"
           exponent="2.4"
           id="feFuncR77"
           offset="0"
           type="gamma" />
        <feFuncG
           amplitude="1"
           exponent="2.4"
           id="feFuncG79"
           offset="0"
           type="gamma" />
        <feFuncB
           amplitude="1"
           exponent="2.4"
           id="feFuncB81"
           offset="0"
           type="gamma" />
      </feComponentTransfer>
    </filter>
    <radialGradient
       cx="0"
       cy="0"
       gradientTransform="matrix(0,-1,0.886054,0,172.174,122.358)"
       gradientUnits="userSpaceOnUse"
       id="RadialGradient"
       r="237.42799">
      <stop
         id="stop84"
         offset="0"
         stop-color="#473600" />
      <stop
         id="stop86"
         offset="0.792135000228882"
         stop-color="#3d2f00" />
      <stop
         id="stop88"
         offset="0.990000009536743"
         stop-color="#3a2c00" />
      <stop
         id="stop90"
         offset="1"
         stop-color="#3a2c00" />
    </radialGradient>
    <radialGradient
       cx="0"
       cy="0"
       gradientTransform="matrix(0,-1,0.886054,0,170.916,119.88)"
       gradientUnits="userSpaceOnUse"
       id="RadialGradient_1"
       r="237.42799">
      <stop
         id="stop93"
         offset="0"
         stop-color="#553e00" />
      <stop
         id="stop95"
         offset="0.792135000228882"
         stop-color="#403200" />
      <stop
         id="stop97"
         offset="0.990000009536743"
         stop-color="#3b2b00" />
      <stop
         id="stop99"
         offset="1"
         stop-color="#3b2b00" />
    </radialGradient>
    <radialGradient
       cx="0"
       cy="0"
       gradientTransform="matrix(0,-1,0.886054,0,169.66,117.403)"
       gradientUnits="userSpaceOnUse"
       id="RadialGradient_2"
       r="237.42799">
      <stop
         id="stop102"
         offset="0"
         stop-color="#634700" />
      <stop
         id="stop104"
         offset="0.792135000228882"
         stop-color="#443400" />
      <stop
         id="stop106"
         offset="0.990000009536743"
         stop-color="#3c2a00" />
      <stop
         id="stop108"
         offset="1"
         stop-color="#3c2a00" />
    </radialGradient>
    <radialGradient
       cx="0"
       cy="0"
       gradientTransform="matrix(0,-1,0.886054,0,168.403,114.925)"
       gradientUnits="userSpaceOnUse"
       id="RadialGradient_3"
       r="237.42799">
      <stop
         id="stop111"
         offset="0"
         stop-color="#724f00" />
      <stop
         id="stop113"
         offset="0.792135000228882"
         stop-color="#473600" />
      <stop
         id="stop115"
         offset="0.990000009536743"
         stop-color="#3c2900" />
      <stop
         id="stop117"
         offset="1"
         stop-color="#3c2900" />
    </radialGradient>
    <radialGradient
       cx="0"
       cy="0"
       gradientTransform="matrix(0,-1,0.886054,0,167.146,112.448)"
       gradientUnits="userSpaceOnUse"
       id="RadialGradient_4"
       r="237.42799">
      <stop
         id="stop120"
         offset="0"
         stop-color="#805800" />
      <stop
         id="stop122"
         offset="0.792135000228882"
         stop-color="#4b3800" />
      <stop
         id="stop124"
         offset="0.990000009536743"
         stop-color="#3d2800" />
      <stop
         id="stop126"
         offset="1"
         stop-color="#3d2800" />
    </radialGradient>
    <radialGradient
       cx="0"
       cy="0"
       gradientTransform="matrix(0,-1,0.886054,0,165.889,109.97)"
       gradientUnits="userSpaceOnUse"
       id="RadialGradient_5"
       r="237.42799">
      <stop
         id="stop129"
         offset="0"
         stop-color="#8e6000" />
      <stop
         id="stop131"
         offset="0.792135000228882"
         stop-color="#4e3b00" />
      <stop
         id="stop133"
         offset="0.990000009536743"
         stop-color="#3e2700" />
      <stop
         id="stop135"
         offset="1"
         stop-color="#3e2700" />
    </radialGradient>
    <radialGradient
       cx="0"
       cy="0"
       gradientTransform="matrix(0,-1,0.886054,0,164.632,107.493)"
       gradientUnits="userSpaceOnUse"
       id="RadialGradient_6"
       r="237.42799">
      <stop
         id="stop138"
         offset="0"
         stop-color="#9c6900" />
      <stop
         id="stop140"
         offset="0.792135000228882"
         stop-color="#523d00" />
      <stop
         id="stop142"
         offset="0.990000009536743"
         stop-color="#3f2600" />
      <stop
         id="stop144"
         offset="1"
         stop-color="#3f2600" />
    </radialGradient>
    <linearGradient
       gradientTransform="translate(218.601,165.399)"
       gradientUnits="userSpaceOnUse"
       id="LinearGradient"
       x1="0"
       x2="42.75"
       y1="0"
       y2="36.75">
      <stop
         id="stop147"
         offset="0"
         stop-color="#5c5c5c" />
      <stop
         id="stop149"
         offset="1"
         stop-color="#000000" />
    </linearGradient>
    <linearGradient
       gradientTransform="translate(181.122,157.792)"
       gradientUnits="userSpaceOnUse"
       id="LinearGradient_1"
       x1="0"
       x2="-9.6719999"
       y1="0"
       y2="-141.858">
      <stop
         id="stop152"
         offset="0"
         stop-color="#ffffff" />
      <stop
         id="stop154"
         offset="1"
         stop-color="#cfd1d2" />
    </linearGradient>
    <linearGradient
       gradientTransform="translate(259.851,172.899)"
       gradientUnits="userSpaceOnUse"
       id="LinearGradient_2"
       x1="0"
       x2="69.75"
       y1="0"
       y2="-189.75">
      <stop
         id="stop157"
         offset="0"
         stop-color="#b5b5b5" />
      <stop
         id="stop159"
         offset="1"
         stop-color="#000000" />
    </linearGradient>
    <linearGradient
       gradientTransform="translate(204.11,87.059)"
       gradientUnits="userSpaceOnUse"
       id="LinearGradient_3"
       x1="0"
       x2="-51.527"
       y1="0"
       y2="-64.410004">
      <stop
         id="stop162"
         offset="0"
         stop-color="#df9000" />
      <stop
         id="stop164"
         offset="0.730337023735046"
         stop-color="#7f5200" />
      <stop
         id="stop166"
         offset="0.990000009536743"
         stop-color="#3f2600" />
      <stop
         id="stop168"
         offset="1"
         stop-color="#3f2600" />
    </linearGradient>
    <linearGradient
       gradientTransform="translate(199.945,96.333)"
       gradientUnits="userSpaceOnUse"
       id="LinearGradient_4"
       x1="0"
       x2="19.041"
       y1="0"
       y2="85.190002">
      <stop
         id="stop171"
         offset="0"
         stop-color="#ba7d00" />
      <stop
         id="stop173"
         offset="0.792135000228882"
         stop-color="#7f5200" />
      <stop
         id="stop175"
         offset="0.990000009536743"
         stop-color="#3f2600" />
      <stop
         id="stop177"
         offset="1"
         stop-color="#3f2600" />
    </linearGradient>
    <linearGradient
       gradientTransform="translate(129.134,111.014)"
       gradientUnits="userSpaceOnUse"
       id="LinearGradient_5"
       x1="0"
       x2="-1.007"
       y1="0"
       y2="-63.535999">
      <stop
         id="stop180"
         offset="0"
         stop-color="#df9000" />
      <stop
         id="stop182"
         offset="0.792135000228882"
         stop-color="#7f5200" />
      <stop
         id="stop184"
         offset="0.990000009536743"
         stop-color="#3f2600" />
      <stop
         id="stop186"
         offset="1"
         stop-color="#3f2600" />
    </linearGradient>
    <linearGradient
       gradientTransform="translate(129.286,104.867)"
       gradientUnits="userSpaceOnUse"
       id="LinearGradient_6"
       x1="0"
       x2="15.098"
       y1="0"
       y2="58.375">
      <stop
         id="stop189"
         offset="0"
         stop-color="#df9000" />
      <stop
         id="stop191"
         offset="0.792135000228882"
         stop-color="#7f5200" />
      <stop
         id="stop193"
         offset="0.990000009536743"
         stop-color="#3f2600" />
      <stop
         id="stop195"
         offset="1"
         stop-color="#3f2600" />
    </linearGradient>
    <radialGradient
       cx="0"
       cy="0"
       gradientTransform="matrix(0.69735527,-0.71672563,1.2319152,1.1986212,183.351,196.899)"
       gradientUnits="userSpaceOnUse"
       id="RadialGradient_7"
       r="38.716999">
      <stop
         id="stop198"
         offset="0"
         stop-color="#6b4c29" />
      <stop
         id="stop200"
         offset="1"
         stop-color="#a57348" />
    </radialGradient>
    <radialGradient
       cx="0"
       cy="0"
       gradientTransform="matrix(0,-1,0.973942,0,134.346,314.993)"
       gradientUnits="userSpaceOnUse"
       id="RadialGradient_8"
       r="120.999">
      <stop
         id="stop203"
         offset="0"
         stop-color="#e0bf9e" />
      <stop
         id="stop205"
         offset="1.68539006263018E-02"
         stop-color="#e0bf9e" />
      <stop
         id="stop207"
         offset="0.202246993780136"
         stop-color="#e6b891" />
      <stop
         id="stop209"
         offset="1"
         stop-color="#7b5d39" />
    </radialGradient>
    <radialGradient
       cx="0"
       cy="0"
       gradientTransform="matrix(-0.01429027,-0.99989789,1.2061368,-0.01723778,146.601,370.899)"
       gradientUnits="userSpaceOnUse"
       id="RadialGradient_9"
       r="87.054001">
      <stop
         id="stop212"
         offset="0"
         stop-color="#9a9a9a" />
      <stop
         id="stop214"
         offset="1"
         stop-color="#313131" />
    </radialGradient>
    <linearGradient
       gradientTransform="translate(213.351,257.649)"
       gradientUnits="userSpaceOnUse"
       id="LinearGradient_7"
       x1="0"
       x2="-54"
       y1="0"
       y2="-87">
      <stop
         id="stop217"
         offset="0"
         stop-color="#484848" />
      <stop
         id="stop219"
         offset="1"
         stop-color="#000000" />
    </linearGradient>
    <linearGradient
       gradientTransform="translate(133.101,343.149)"
       gradientUnits="userSpaceOnUse"
       id="LinearGradient_8"
       x1="0"
       x2="10.5"
       y1="0"
       y2="-85.5">
      <stop
         id="stop222"
         offset="0"
         stop-color="#8d8d8d" />
      <stop
         id="stop224"
         offset="1"
         stop-color="#000000" />
    </linearGradient>
    <linearGradient
       gradientTransform="translate(239.24,380.259)"
       gradientUnits="userSpaceOnUse"
       id="LinearGradient_9"
       x1="0"
       x2="3.5999999"
       y1="0"
       y2="-129">
      <stop
         id="stop227"
         offset="0"
         stop-color="#ffffff" />
      <stop
         id="stop229"
         offset="1"
         stop-color="#000000" />
    </linearGradient>
    <linearGradient
       gradientTransform="translate(115.007,352.336)"
       gradientUnits="userSpaceOnUse"
       id="LinearGradient_10"
       x1="0"
       x2="108"
       y1="0"
       y2="-33.75">
      <stop
         id="stop232"
         offset="0"
         stop-color="#ffffff" />
      <stop
         id="stop234"
         offset="1"
         stop-color="#000000" />
    </linearGradient>
    <linearGradient
       gradientTransform="translate(226.61,87.059)"
       gradientUnits="userSpaceOnUse"
       id="LinearGradient_11"
       x1="0"
       x2="-51.527"
       y1="0"
       y2="-64.410004">
      <stop
         id="stop237"
         offset="0"
         stop-color="#df9000" />
      <stop
         id="stop239"
         offset="0.730337023735046"
         stop-color="#7f5200" />
      <stop
         id="stop241"
         offset="0.990000009536743"
         stop-color="#3f2600" />
      <stop
         id="stop243"
         offset="1"
         stop-color="#3f2600" />
    </linearGradient>
  </defs>
  <g
     id="g3356"
     transform="matrix(0.64050449,0,0,0.64031522,0,25.600003)"
     style="fill:#ffffff;fill-opacity:1">
    <path
       d="m 0,-3.651992 0,-32.676332 c 0,-2.01426 1.6353097,-3.651992 3.6503044,-3.651992 l 32.6678936,0 c 2.013329,0 3.650304,1.637732 3.650304,3.651992 l 0,32.676332 C 39.968502,-1.6360658 38.331527,0 36.318198,0 L 3.6503044,0 C 1.6353097,0 0,-1.6360658 0,-3.651992 Z m 38.719538,0 0,-32.676332 c 0,-1.322848 -1.079104,-2.402451 -2.40134,-2.402451 l -32.6678936,0 c -1.3239014,0 -2.4013408,1.079603 -2.4013408,2.402451 l 0,32.676332 c 0,1.3245135 1.0774394,2.4024509 2.4013408,2.4024509 l 32.6678936,0 c 1.322236,0 2.40134,-1.0779374 2.40134,-2.4024509 z"
       id="path3358"
       style="fill:#ffffff;fill-opacity:1;fill-rule:evenodd;stroke:none"
       inkscape:connector-curvature="0" />
    <path
       d="m 6.2464835,-11.059272 0,-17.865105 c 0,-2.657357 2.1565439,-4.816564 4.8143385,-4.816564 l 17.863511,0 c 2.656129,0 4.814338,2.159207 4.814338,4.816564 l 0,17.865105 c 0,2.6590239 -2.158209,4.8165648 -4.814338,4.8165648 l -17.863511,0 c -2.6577946,0 -4.8143385,-2.1575409 -4.8143385,-4.8165648 z m 26.2432245,0 0,-17.865105 c 0,-1.965944 -1.600339,-3.567023 -3.565375,-3.567023 l -17.863511,0 c -0.07827,0 -0.156537,0.0033 -0.23314,0.0083 l 0.414656,0 0,7.495581 -1.2506288,0 -0.00167,-7.338972 c -1.4454673,0.454833 -2.4945967,1.809336 -2.4945967,3.402084 l 0,3.938554 24.9776075,0 0,1.247875 -24.9776075,0 0,12.678676 c 0,1.9676112 1.5986734,3.5670237 3.5653745,3.5670237 l 17.863511,0 c 1.965036,0 3.565375,-1.5994125 3.565375,-3.5670237 z M 13.73527,-16.23737 c 0,-3.448733 2.801009,-6.249371 6.249814,-6.249371 3.447139,0 6.249814,2.800638 6.249814,6.249371 0,3.4504 -2.802675,6.2493717 -6.249814,6.2493717 -3.448805,0 -6.249814,-2.7989717 -6.249814,-6.2493717 z m 11.250664,0 c 0,-2.75732 -2.241473,-4.99983 -5.00085,-4.99983 -2.761043,0 -5.000851,2.24251 -5.000851,4.99983 0,2.758987 2.239808,4.999831 5.000851,4.999831 2.759377,0 5.00085,-2.240844 5.00085,-4.999831 z m -8.73775,-0.0067 c 0,-2.062576 1.673612,-3.740293 3.7369,-3.740293 2.061622,0 3.736899,1.677717 3.736899,3.740293 0,2.064242 -1.675277,3.740293 -3.736899,3.740293 -2.063288,0 -3.7369,-1.676051 -3.7369,-3.740293 z m 6.224835,0 c 0,-1.374495 -1.117406,-2.490752 -2.487935,-2.490752 -1.372195,0 -2.487936,1.116257 -2.487936,2.490752 0,1.376161 1.115741,2.490752 2.487936,2.490752 1.370529,0 2.487935,-1.114591 2.487935,-2.490752 z m -9.981717,-8.743455 0,-7.495581 1.250629,0 0,7.495581 -1.250629,0 z m 2.496262,0 0,-7.495581 1.250629,0 0,7.495581 -1.250629,0 z m 10.000035,-3.745291 c 0,-1.376162 1.10908,-2.507413 2.487936,-2.507413 1.377191,0 2.487936,1.131251 2.487936,2.507413 0,1.377827 -1.110745,2.507412 -2.487936,2.507412 -1.378856,0 -2.487936,-1.129585 -2.487936,-2.507412 z m 3.726908,0 c 0,-0.698077 -0.562866,-1.257872 -1.238972,-1.257872 -0.677771,0 -1.238972,0.559795 -1.238972,1.257872 0,0.699743 0.561201,1.257871 1.238972,1.257871 0.676106,0 1.238972,-0.558128 1.238972,-1.257871 z"
       id="path3360"
       style="fill:#ffffff;fill-opacity:1;fill-rule:evenodd;stroke:none"
       inkscape:connector-curvature="0" />
  </g>
</svg>
