<?xml version="1.0" encoding="UTF-8" standalone="no"?>
<svg
   xmlns:dc="http://purl.org/dc/elements/1.1/"
   xmlns:cc="http://creativecommons.org/ns#"
   xmlns:rdf="http://www.w3.org/1999/02/22-rdf-syntax-ns#"
   xmlns:svg="http://www.w3.org/2000/svg"
   xmlns="http://www.w3.org/2000/svg"
   xmlns:xlink="http://www.w3.org/1999/xlink"
   xmlns:sodipodi="http://sodipodi.sourceforge.net/DTD/sodipodi-0.dtd"
   xmlns:inkscape="http://www.inkscape.org/namespaces/inkscape"
   height="32.000004"
   id="svg2"
   overflow="visible"
   style="overflow:visible;fill-rule:evenodd;stroke-width:0.50099999;stroke-linejoin:bevel"
   version="1.1"
   viewBox="0 0 25.600005 25.600004"
   width="32"
   inkscape:version="0.91 r13725"
   sodipodi:docname="vk.svg">
  <metadata
     id="metadata147">
    <rdf:RDF>
      <cc:Work
         rdf:about="">
        <dc:format>image/svg+xml</dc:format>
        <dc:type
           rdf:resource="http://purl.org/dc/dcmitype/StillImage" />
        <dc:title />
      </cc:Work>
    </rdf:RDF>
  </metadata>
  <sodipodi:namedview
     pagecolor="#ffffff"
     bordercolor="#666666"
     borderopacity="1"
     objecttolerance="10"
     gridtolerance="10"
     guidetolerance="10"
     inkscape:pageopacity="0"
     inkscape:pageshadow="2"
     inkscape:window-width="3205"
     inkscape:window-height="1793"
     id="namedview145"
     showgrid="false"
     inkscape:showpageshadow="false"
     showborder="false"
     fit-margin-top="0"
     fit-margin-left="0"
     fit-margin-right="0"
     fit-margin-bottom="0"
     inkscape:zoom="7.3749991"
     inkscape:cx="-9.4237308"
     inkscape:cy="16.000005"
     inkscape:window-x="0"
     inkscape:window-y="41"
     inkscape:window-maximized="0"
     inkscape:current-layer="svg2" />
  <script
     id="script3301"
     xlink:href="" />
  <script
     id="script3299"
     xlink:href="" />
  <defs
     id="defs4">
    <marker
       id="DefaultArrow2"
       markerHeight="1"
       markerUnits="strokeWidth"
       markerWidth="1"
       orient="auto"
       overflow="visible"
       style="overflow:visible"
       viewBox="0 0 1 1">
      <g
         id="g7"
         transform="scale(0.00925926,0.00925926)">
        <path
           d="M -9,54 -9,-54 117,0 Z"
           id="path9"
           inkscape:connector-curvature="0" />
      </g>
    </marker>
    <marker
       id="DefaultArrow3"
       markerHeight="1"
       markerUnits="strokeWidth"
       markerWidth="1"
       orient="auto"
       overflow="visible"
       style="overflow:visible"
       viewBox="0 0 1 1">
      <g
         id="g12"
         transform="scale(0.00925926,0.00925926)">
        <path
           d="M -27,54 -9,0 -27,-54 135,0 Z"
           id="path14"
           inkscape:connector-curvature="0" />
      </g>
    </marker>
    <marker
       id="DefaultArrow4"
       markerHeight="1"
       markerUnits="strokeWidth"
       markerWidth="1"
       orient="auto"
       overflow="visible"
       style="overflow:visible"
       viewBox="0 0 1 1">
      <g
         id="g17"
         transform="scale(0.00925926,0.00925926)">
        <path
           d="m -9,0 0,-45 c 0,-6.708 11.808,-11.58 18,-9 l 108,45 c 3.916,1.631 9,4.758 9,9 0,4.242 -5.084,7.369 -9,9 L 9,54 C 2.808,56.58 -9,51.708 -9,45 Z"
           id="path19"
           inkscape:connector-curvature="0" />
      </g>
    </marker>
    <marker
       id="DefaultArrow5"
       markerHeight="1"
       markerUnits="strokeWidth"
       markerWidth="1"
       orient="auto"
       overflow="visible"
       style="overflow:visible"
       viewBox="0 0 1 1">
      <g
         id="g22"
         transform="scale(0.00925926,0.00925926)">
        <path
           d="M -54,0 C -54,29.807 -29.807,54 0,54 29.807,54 54,29.807 54,0 54,-29.807 29.807,-54 0,-54 -29.807,-54 -54,-29.807 -54,0 Z"
           id="path24"
           inkscape:connector-curvature="0" />
      </g>
    </marker>
    <marker
       id="DefaultArrow6"
       markerHeight="1"
       markerUnits="strokeWidth"
       markerWidth="1"
       orient="auto"
       overflow="visible"
       style="overflow:visible"
       viewBox="0 0 1 1">
      <g
         id="g27"
         transform="scale(0.00925926,0.00925926)">
        <path
           d="M -63,0 0,63 63,0 0,-63 Z"
           id="path29"
           inkscape:connector-curvature="0" />
      </g>
    </marker>
    <marker
       id="DefaultArrow7"
       markerHeight="1"
       markerUnits="strokeWidth"
       markerWidth="1"
       orient="auto"
       overflow="visible"
       style="overflow:visible"
       viewBox="0 0 1 1">
      <g
         id="g32"
         transform="scale(0.00925926,0.00925926)">
        <path
           d="m 18,-54 90,0 L 63,0 108,54 18,54 -36,0 Z"
           id="path34"
           inkscape:connector-curvature="0" />
      </g>
    </marker>
    <marker
       id="DefaultArrow8"
       markerHeight="1"
       markerUnits="strokeWidth"
       markerWidth="1"
       orient="auto"
       overflow="visible"
       style="overflow:visible"
       viewBox="0 0 1 1">
      <g
         id="g37"
         transform="scale(0.00925926,0.00925926)">
        <path
           d="m -36,0 54,-54 36,0 -36,36 9,0 36,-36 36,0 -36,36 9,0 36,-36 36,0 -54,54 54,54 -36,0 -36,-36 -9,0 36,36 -36,0 -36,-36 -9,0 36,36 -36,0 z"
           id="path39"
           inkscape:connector-curvature="0" />
      </g>
    </marker>
    <marker
       id="DefaultArrow9"
       markerHeight="1"
       markerUnits="strokeWidth"
       markerWidth="1"
       orient="auto"
       overflow="visible"
       style="overflow:visible"
       viewBox="0 0 1 1">
      <g
         id="g42"
         transform="scale(0.00925926,0.00925926)">
        <path
           d="M 0,45 -45,0 0,-45 45,0 Z M 0,63 -63,0 0,-63 63,0 Z"
           id="path44"
           inkscape:connector-curvature="0" />
      </g>
    </marker>
    <filter
       id="StainedFilter"
       style="color-interpolation-filters:sRGB">
      <feBlend
         id="feBlend47"
         in="SourceGraphic"
         in2="BackgroundImage"
         mode="multiply"
         result="blend" />
      <feComposite
         id="feComposite49"
         in="blend"
         in2="SourceAlpha"
         operator="in"
         result="comp" />
    </filter>
    <filter
       id="BleachFilter"
       style="color-interpolation-filters:sRGB">
      <feBlend
         id="feBlend52"
         in="SourceGraphic"
         in2="BackgroundImage"
         mode="screen"
         result="blend" />
      <feComposite
         id="feComposite54"
         in="blend"
         in2="SourceAlpha"
         operator="in"
         result="comp" />
    </filter>
    <filter
       id="InvertTransparencyBitmapFilter"
       style="color-interpolation-filters:sRGB">
      <feComponentTransfer
         id="feComponentTransfer57">
        <feFuncR
           amplitude="1.055"
           exponent=".416666666"
           id="feFuncR59"
           offset="-0.055"
           type="gamma" />
        <feFuncG
           amplitude="1.055"
           exponent=".416666666"
           id="feFuncG61"
           offset="-0.055"
           type="gamma" />
        <feFuncB
           amplitude="1.055"
           exponent=".416666666"
           id="feFuncB63"
           offset="-0.055"
           type="gamma" />
      </feComponentTransfer>
      <feComponentTransfer
         id="feComponentTransfer65">
        <feFuncR
           id="feFuncR67"
           intercept="1"
           slope="-1"
           type="linear" />
        <feFuncG
           id="feFuncG69"
           intercept="1"
           slope="-1"
           type="linear" />
        <feFuncB
           id="feFuncB71"
           intercept="1"
           slope="-1"
           type="linear" />
        <feFuncA
           id="feFuncA73"
           intercept="0"
           slope="1"
           type="linear" />
      </feComponentTransfer>
      <feComponentTransfer
         id="feComponentTransfer75">
        <feFuncR
           amplitude="1"
           exponent="2.4"
           id="feFuncR77"
           offset="0"
           type="gamma" />
        <feFuncG
           amplitude="1"
           exponent="2.4"
           id="feFuncG79"
           offset="0"
           type="gamma" />
        <feFuncB
           amplitude="1"
           exponent="2.4"
           id="feFuncB81"
           offset="0"
           type="gamma" />
      </feComponentTransfer>
    </filter>
    <radialGradient
       cx="0"
       cy="0"
       gradientTransform="matrix(0,-1,0.886054,0,172.174,122.358)"
       gradientUnits="userSpaceOnUse"
       id="RadialGradient"
       r="237.42799">
      <stop
         id="stop84"
         offset="0"
         stop-color="#473600" />
      <stop
         id="stop86"
         offset="0.792135000228882"
         stop-color="#3d2f00" />
      <stop
         id="stop88"
         offset="0.990000009536743"
         stop-color="#3a2c00" />
      <stop
         id="stop90"
         offset="1"
         stop-color="#3a2c00" />
    </radialGradient>
    <radialGradient
       cx="0"
       cy="0"
       gradientTransform="matrix(0,-1,0.886054,0,170.916,119.88)"
       gradientUnits="userSpaceOnUse"
       id="RadialGradient_1"
       r="237.42799">
      <stop
         id="stop93"
         offset="0"
         stop-color="#553e00" />
      <stop
         id="stop95"
         offset="0.792135000228882"
         stop-color="#403200" />
      <stop
         id="stop97"
         offset="0.990000009536743"
         stop-color="#3b2b00" />
      <stop
         id="stop99"
         offset="1"
         stop-color="#3b2b00" />
    </radialGradient>
    <radialGradient
       cx="0"
       cy="0"
       gradientTransform="matrix(0,-1,0.886054,0,169.66,117.403)"
       gradientUnits="userSpaceOnUse"
       id="RadialGradient_2"
       r="237.42799">
      <stop
         id="stop102"
         offset="0"
         stop-color="#634700" />
      <stop
         id="stop104"
         offset="0.792135000228882"
         stop-color="#443400" />
      <stop
         id="stop106"
         offset="0.990000009536743"
         stop-color="#3c2a00" />
      <stop
         id="stop108"
         offset="1"
         stop-color="#3c2a00" />
    </radialGradient>
    <radialGradient
       cx="0"
       cy="0"
       gradientTransform="matrix(0,-1,0.886054,0,168.403,114.925)"
       gradientUnits="userSpaceOnUse"
       id="RadialGradient_3"
       r="237.42799">
      <stop
         id="stop111"
         offset="0"
         stop-color="#724f00" />
      <stop
         id="stop113"
         offset="0.792135000228882"
         stop-color="#473600" />
      <stop
         id="stop115"
         offset="0.990000009536743"
         stop-color="#3c2900" />
      <stop
         id="stop117"
         offset="1"
         stop-color="#3c2900" />
    </radialGradient>
    <radialGradient
       cx="0"
       cy="0"
       gradientTransform="matrix(0,-1,0.886054,0,167.146,112.448)"
       gradientUnits="userSpaceOnUse"
       id="RadialGradient_4"
       r="237.42799">
      <stop
         id="stop120"
         offset="0"
         stop-color="#805800" />
      <stop
         id="stop122"
         offset="0.792135000228882"
         stop-color="#4b3800" />
      <stop
         id="stop124"
         offset="0.990000009536743"
         stop-color="#3d2800" />
      <stop
         id="stop126"
         offset="1"
         stop-color="#3d2800" />
    </radialGradient>
    <radialGradient
       cx="0"
       cy="0"
       gradientTransform="matrix(0,-1,0.886054,0,165.889,109.97)"
       gradientUnits="userSpaceOnUse"
       id="RadialGradient_5"
       r="237.42799">
      <stop
         id="stop129"
         offset="0"
         stop-color="#8e6000" />
      <stop
         id="stop131"
         offset="0.792135000228882"
         stop-color="#4e3b00" />
      <stop
         id="stop133"
         offset="0.990000009536743"
         stop-color="#3e2700" />
      <stop
         id="stop135"
         offset="1"
         stop-color="#3e2700" />
    </radialGradient>
    <radialGradient
       cx="0"
       cy="0"
       gradientTransform="matrix(0,-1,0.886054,0,164.632,107.493)"
       gradientUnits="userSpaceOnUse"
       id="RadialGradient_6"
       r="237.42799">
      <stop
         id="stop138"
         offset="0"
         stop-color="#9c6900" />
      <stop
         id="stop140"
         offset="0.792135000228882"
         stop-color="#523d00" />
      <stop
         id="stop142"
         offset="0.990000009536743"
         stop-color="#3f2600" />
      <stop
         id="stop144"
         offset="1"
         stop-color="#3f2600" />
    </radialGradient>
    <linearGradient
       gradientTransform="translate(218.601,165.399)"
       gradientUnits="userSpaceOnUse"
       id="LinearGradient"
       x1="0"
       x2="42.75"
       y1="0"
       y2="36.75">
      <stop
         id="stop147"
         offset="0"
         stop-color="#5c5c5c" />
      <stop
         id="stop149"
         offset="1"
         stop-color="#000000" />
    </linearGradient>
    <linearGradient
       gradientTransform="translate(181.122,157.792)"
       gradientUnits="userSpaceOnUse"
       id="LinearGradient_1"
       x1="0"
       x2="-9.6719999"
       y1="0"
       y2="-141.858">
      <stop
         id="stop152"
         offset="0"
         stop-color="#ffffff" />
      <stop
         id="stop154"
         offset="1"
         stop-color="#cfd1d2" />
    </linearGradient>
    <linearGradient
       gradientTransform="translate(259.851,172.899)"
       gradientUnits="userSpaceOnUse"
       id="LinearGradient_2"
       x1="0"
       x2="69.75"
       y1="0"
       y2="-189.75">
      <stop
         id="stop157"
         offset="0"
         stop-color="#b5b5b5" />
      <stop
         id="stop159"
         offset="1"
         stop-color="#000000" />
    </linearGradient>
    <linearGradient
       gradientTransform="translate(204.11,87.059)"
       gradientUnits="userSpaceOnUse"
       id="LinearGradient_3"
       x1="0"
       x2="-51.527"
       y1="0"
       y2="-64.410004">
      <stop
         id="stop162"
         offset="0"
         stop-color="#df9000" />
      <stop
         id="stop164"
         offset="0.730337023735046"
         stop-color="#7f5200" />
      <stop
         id="stop166"
         offset="0.990000009536743"
         stop-color="#3f2600" />
      <stop
         id="stop168"
         offset="1"
         stop-color="#3f2600" />
    </linearGradient>
    <linearGradient
       gradientTransform="translate(199.945,96.333)"
       gradientUnits="userSpaceOnUse"
       id="LinearGradient_4"
       x1="0"
       x2="19.041"
       y1="0"
       y2="85.190002">
      <stop
         id="stop171"
         offset="0"
         stop-color="#ba7d00" />
      <stop
         id="stop173"
         offset="0.792135000228882"
         stop-color="#7f5200" />
      <stop
         id="stop175"
         offset="0.990000009536743"
         stop-color="#3f2600" />
      <stop
         id="stop177"
         offset="1"
         stop-color="#3f2600" />
    </linearGradient>
    <linearGradient
       gradientTransform="translate(129.134,111.014)"
       gradientUnits="userSpaceOnUse"
       id="LinearGradient_5"
       x1="0"
       x2="-1.007"
       y1="0"
       y2="-63.535999">
      <stop
         id="stop180"
         offset="0"
         stop-color="#df9000" />
      <stop
         id="stop182"
         offset="0.792135000228882"
         stop-color="#7f5200" />
      <stop
         id="stop184"
         offset="0.990000009536743"
         stop-color="#3f2600" />
      <stop
         id="stop186"
         offset="1"
         stop-color="#3f2600" />
    </linearGradient>
    <linearGradient
       gradientTransform="translate(129.286,104.867)"
       gradientUnits="userSpaceOnUse"
       id="LinearGradient_6"
       x1="0"
       x2="15.098"
       y1="0"
       y2="58.375">
      <stop
         id="stop189"
         offset="0"
         stop-color="#df9000" />
      <stop
         id="stop191"
         offset="0.792135000228882"
         stop-color="#7f5200" />
      <stop
         id="stop193"
         offset="0.990000009536743"
         stop-color="#3f2600" />
      <stop
         id="stop195"
         offset="1"
         stop-color="#3f2600" />
    </linearGradient>
    <radialGradient
       cx="0"
       cy="0"
       gradientTransform="matrix(0.69735527,-0.71672563,1.2319152,1.1986212,183.351,196.899)"
       gradientUnits="userSpaceOnUse"
       id="RadialGradient_7"
       r="38.716999">
      <stop
         id="stop198"
         offset="0"
         stop-color="#6b4c29" />
      <stop
         id="stop200"
         offset="1"
         stop-color="#a57348" />
    </radialGradient>
    <radialGradient
       cx="0"
       cy="0"
       gradientTransform="matrix(0,-1,0.973942,0,134.346,314.993)"
       gradientUnits="userSpaceOnUse"
       id="RadialGradient_8"
       r="120.999">
      <stop
         id="stop203"
         offset="0"
         stop-color="#e0bf9e" />
      <stop
         id="stop205"
         offset="1.68539006263018E-02"
         stop-color="#e0bf9e" />
      <stop
         id="stop207"
         offset="0.202246993780136"
         stop-color="#e6b891" />
      <stop
         id="stop209"
         offset="1"
         stop-color="#7b5d39" />
    </radialGradient>
    <radialGradient
       cx="0"
       cy="0"
       gradientTransform="matrix(-0.01429027,-0.99989789,1.2061368,-0.01723778,146.601,370.899)"
       gradientUnits="userSpaceOnUse"
       id="RadialGradient_9"
       r="87.054001">
      <stop
         id="stop212"
         offset="0"
         stop-color="#9a9a9a" />
      <stop
         id="stop214"
         offset="1"
         stop-color="#313131" />
    </radialGradient>
    <linearGradient
       gradientTransform="translate(213.351,257.649)"
       gradientUnits="userSpaceOnUse"
       id="LinearGradient_7"
       x1="0"
       x2="-54"
       y1="0"
       y2="-87">
      <stop
         id="stop217"
         offset="0"
         stop-color="#484848" />
      <stop
         id="stop219"
         offset="1"
         stop-color="#000000" />
    </linearGradient>
    <linearGradient
       gradientTransform="translate(133.101,343.149)"
       gradientUnits="userSpaceOnUse"
       id="LinearGradient_8"
       x1="0"
       x2="10.5"
       y1="0"
       y2="-85.5">
      <stop
         id="stop222"
         offset="0"
         stop-color="#8d8d8d" />
      <stop
         id="stop224"
         offset="1"
         stop-color="#000000" />
    </linearGradient>
    <linearGradient
       gradientTransform="translate(239.24,380.259)"
       gradientUnits="userSpaceOnUse"
       id="LinearGradient_9"
       x1="0"
       x2="3.5999999"
       y1="0"
       y2="-129">
      <stop
         id="stop227"
         offset="0"
         stop-color="#ffffff" />
      <stop
         id="stop229"
         offset="1"
         stop-color="#000000" />
    </linearGradient>
    <linearGradient
       gradientTransform="translate(115.007,352.336)"
       gradientUnits="userSpaceOnUse"
       id="LinearGradient_10"
       x1="0"
       x2="108"
       y1="0"
       y2="-33.75">
      <stop
         id="stop232"
         offset="0"
         stop-color="#ffffff" />
      <stop
         id="stop234"
         offset="1"
         stop-color="#000000" />
    </linearGradient>
    <linearGradient
       gradientTransform="translate(226.61,87.059)"
       gradientUnits="userSpaceOnUse"
       id="LinearGradient_11"
       x1="0"
       x2="-51.527"
       y1="0"
       y2="-64.410004">
      <stop
         id="stop237"
         offset="0"
         stop-color="#df9000" />
      <stop
         id="stop239"
         offset="0.730337023735046"
         stop-color="#7f5200" />
      <stop
         id="stop241"
         offset="0.990000009536743"
         stop-color="#3f2600" />
      <stop
         id="stop243"
         offset="1"
         stop-color="#3f2600" />
    </linearGradient>
  </defs>
  <g
     id="g3396"
     transform="matrix(0.64050449,0,0,0.64031522,0,25.600003)"
     style="fill:#ffffff;fill-opacity:1">
    <path
       d="m 26.386439,-10.88267 -2.484605,-3.142179 c -0.138219,-0.168272 -0.249793,-0.264903 -0.328061,-0.319883 l -0.08659,-0.04998 -0.03664,0.08497 -0.566196,2.529071 -0.09492,0.523141 c -0.159867,0.539802 -0.509577,1.091266 -1.222319,1.229548 l -0.43797,0.028323 -2.872616,0 c -5.109094,0 -9.7219331,-7.278993 -12.9509204,-16.347329 l -0.023314,-0.08497 c -0.1099088,-0.5448 -0.1648632,-1.149578 0.1015824,-1.636066 0.3064124,-0.56146 0.8925927,-0.741394 1.5070828,-0.759721 l 4.4146702,0.02999 c 0.273107,0.0017 0.514573,0.179934 0.592841,0.441505 0.99251,3.263801 2.211499,5.258069 3.701929,7.532234 l 0.04163,0.07331 c 0.161532,0.339875 0.499585,0.243244 0.67444,-0.02666 l 0.106578,-0.314884 0.0017,-5.123119 c 0,-0.753056 -0.343049,-0.859684 -1.175691,-0.977974 -0.381351,-0.05498 -0.622817,-0.439838 -0.506247,-0.80637 0.401334,-1.272866 1.718574,-1.924294 3.545391,-1.924294 l 1.683603,-0.03999 c 1.362203,0 2.596179,0.584785 2.596179,2.327479 l 0,6.739191 0.119901,0.06664 c 0.223148,0.07831 0.661118,0.09497 1.015824,-0.461497 1.530397,-2.159207 3.293933,-4.73826 3.542061,-6.086098 0.01,-0.05498 0.02664,-0.106627 0.04996,-0.156609 0.311408,-0.65476 1.162369,-1.116257 1.505418,-1.221218 0.04829,-0.01499 0.14488,-0.04332 0.258119,-0.04332 l 4.597851,0.0033 0.284764,0.0033 c 0.108244,0.01333 0.214822,0.03665 0.31807,0.07331 0.276437,0.09996 0.471275,0.281563 0.599502,0.488154 0.251458,0.40985 0.216487,0.869681 0.241466,1.052947 0.01,0.06164 0.01,0.124954 0,0.188264 -0.431308,2.699009 -3.533734,5.724564 -4.837652,7.687177 -0.334722,0.461497 -0.339718,0.80637 -0.02831,1.184564 l 4.328075,5.419677 c 0.499586,0.714737 0.472941,1.496117 -0.05828,2.054245 -0.346379,0.364866 -0.849295,0.568125 -1.380521,0.629769 l -0.499585,0.014994 -4.599517,0 0.0816,-0.005 c -0.604498,0.079971 -1.074109,-0.169937 -1.427149,-0.524807 l -0.29309,-0.353204 z m 1.63864,-0.366532 4.629492,0.0017 c 0.487928,0.02832 0.81599,-0.121622 0.945882,-0.258238 0.04496,-0.04665 0.106578,-0.121622 0.04663,-0.28323 l -0.09992,-0.181599 -4.283113,-5.359699 c -0.734391,-0.894671 -0.61449,-1.872645 -0.02831,-2.684014 1.240637,-1.867647 3.905093,-4.536667 4.532905,-6.739191 l 0.08493,-0.376529 -0.02165,-0.238246 -0.0333,-0.1816 -0.128227,0 -4.529575,0 -0.148211,0.06997 c -0.139883,0.0783 -0.313073,0.199926 -0.436304,0.31655 l -0.124896,0.154943 -0.154872,0.554796 c -0.532891,1.491119 -1.866784,3.482055 -3.004174,5.104792 l -0.547879,0.77305 -0.346379,0.42651 c -0.919237,0.894671 -2.27811,0.731398 -2.832649,-0.01499 -0.131558,-0.176602 -0.226479,-0.403185 -0.226479,-0.66309 l 0,-6.809165 c 0,-0.806371 -0.366363,-1.077938 -1.332228,-1.077938 l -1.683603,0.03999 c -0.810994,0 -1.363868,0.138283 -1.733562,0.33821 l -0.20483,0.133284 0.14488,0.05165 c 0.616156,0.274899 1.164034,0.811368 1.164034,1.937621 l -0.005,5.203089 c -0.1199,1.624404 -2.10492,2.339141 -2.992516,1.077938 l -0.119901,-0.206591 c -1.325567,-2.020924 -2.48294,-3.890238 -3.45047,-6.624234 l -0.258119,-0.788044 -3.9450602,-0.02499 c -0.4063295,0.01 -0.4296435,0.119955 -0.4229824,0.108293 -0.026645,0.04665 -0.058285,0.17327 -0.02831,0.454833 l 0.048293,0.294892 0.6161554,1.662722 c 3.2256572,8.353599 7.3089362,13.806596 11.1407562,13.806596 l 2.899261,0.0017 c 0.393007,0.01999 0.477937,-0.418179 0.49792,-0.714737 l 0.01499,-0.08997 0.576188,-2.580719 0.01665,-0.06331 c 0.07993,-0.238246 0.203165,-0.469828 0.393007,-0.649761 0.258119,-0.24491 0.592842,-0.35487 0.945882,-0.308221 0.492924,0.06498 0.924233,0.416514 1.275608,0.84469 l 2.509585,3.178833 c 0.258119,0.369864 0.427978,0.404851 0.556205,0.38819 l 0.08326,-0.0067 z"
       id="path3398"
       style="fill:#ffffff;fill-opacity:1;fill-rule:evenodd;stroke:none"
       inkscape:connector-curvature="0" />
    <path
       d="m 0,-3.651992 0,-32.676332 c 0,-2.01426 1.6353097,-3.651992 3.6503044,-3.651992 l 32.6678936,0 c 2.013329,0 3.650304,1.637732 3.650304,3.651992 l 0,32.676332 C 39.968502,-1.6360658 38.331527,0 36.318198,0 L 3.6503044,0 C 1.6353097,0 0,-1.6360658 0,-3.651992 Z m 38.719538,0 0,-32.676332 c 0,-1.322848 -1.079104,-2.402451 -2.40134,-2.402451 l -32.6678936,0 c -1.3239014,0 -2.4013408,1.079603 -2.4013408,2.402451 l 0,32.676332 c 0,1.3245135 1.0774394,2.4024509 2.4013408,2.4024509 l 32.6678936,0 c 1.322236,0 2.40134,-1.0779374 2.40134,-2.4024509 z"
       id="path3400"
       style="fill:#ffffff;fill-opacity:1;fill-rule:evenodd;stroke:none"
       inkscape:connector-curvature="0" />
  </g>
</svg>
