<?xml version="1.0" encoding="utf-8"?>
<!-- Generator: Adobe Illustrator 15.0.0, SVG Export Plug-In . SVG Version: 6.00 Build 0)  -->
<!DOCTYPE svg PUBLIC "-//W3C//DTD SVG 1.1//EN" "http://www.w3.org/Graphics/SVG/1.1/DTD/svg11.dtd">
<svg version="1.1" xmlns="http://www.w3.org/2000/svg" xmlns:xlink="http://www.w3.org/1999/xlink" x="0px" y="0px"
	viewBox="0 0 776.199 546.199" enable-background="new 0 0 776.199 546.199"
	 xml:space="preserve">
<g id="Ebene_1">
	<g opacity="0.56">
		<path fill="#333333" d="M51.4,102.7C22.5,102.7,1,80.3,1,52.1v-0.3C1,23.9,22.1,1,52.3,1C70.8,1,81.9,7.2,91,16.2L77.3,32
			C69.7,25.1,62,20.9,52.2,20.9C35.6,20.9,23.7,34.7,23.7,51.5v0.3c0,16.9,11.699,30.9,28.5,30.9c11.199,0,18.1-4.5,25.8-11.5
			L91.8,85.1C81.6,95.9,70.4,102.7,51.4,102.7"/>
		<polygon fill="#333333" points="170.5,101 170.5,61.5 130.6,61.5 130.6,101 109,101 109,2.7 130.6,2.7 130.6,41.6 170.5,41.6 
			170.5,2.7 192.1,2.7 192.1,101 		"/>
		<path fill="#333333" d="M275.4,101l-21.1-31.5h-17V101h-21.6V2.7H260.6C283.8,2.7,297.7,14.9,297.7,35.1v0.3
			c0,15.9-8.601,25.801-21.101,30.5l24,35.101H275.4z M275.8,36.3c0-9.3-6.5-14-17-14h-21.5v28.2h21.9c10.5,0,16.6-5.601,16.6-13.9
			V36.3z"/>
		<rect x="318.3" y="2.7" fill="#333333" width="21.6" height="98.3"/>
		<path fill="#333333" d="M399.4,102.4C384.5,102.4,369.5,97.2,357.7,86.7L370.5,71.4c8.8,7.301,18.1,11.9,29.399,11.9
			c8.8,0,14.2-3.5,14.2-9.3v-0.3c0-5.5-3.399-8.301-19.8-12.5C374.5,56.1,361.7,50.7,361.7,31.1v-0.3C361.7,13,376,1.2,396.1,1.2
			c14.3,0,26.5,4.5,36.5,12.5L421.4,30c-8.7-6-17.3-9.7-25.6-9.7s-12.601,3.8-12.601,8.6V29.2c0,6.5,4.2,8.6,21.2,12.899
			c19.9,5.2,31.2,12.4,31.2,29.5v0.3C435.499,91.4,420.6,102.4,399.4,102.4"/>
		<polygon fill="#333333" points="496.699,22.6 496.699,101 475.1,101 475.1,22.6 445.199,22.6 445.199,2.7 526.699,2.7 
			526.699,22.6 		"/>
		<rect x="544.199" y="2.7" fill="#333333" width="21.601" height="98.3"/>
		<polygon fill="#333333" points="659.4,101 611.8,38.5 611.8,101 590.4,101 590.4,2.7 610.4,2.7 656.4,63.2 656.4,2.7 677.8,2.7 
			677.8,101 		"/>
		<polygon fill="#333333" points="701.4,101 701.4,2.7 775.499,2.7 775.499,21.9 722.9,21.9 722.9,41.9 769.199,41.9 769.199,61.1 
			722.9,61.1 722.9,81.8 776.199,81.8 776.199,101 		"/>
		<polygon fill="#333333" points="71.1,249.1 40.6,207.2 29.3,219 29.3,249.1 7.6,249.1 7.6,150.8 29.3,150.8 29.3,193.7 
			69.2,150.8 95.3,150.8 55.2,192.5 97.1,249.1 		"/>
		<path fill="#333333" d="M169.9,249.1l-21.1-31.5h-17v31.5h-21.6v-98.3H155.1c23.2,0,37.101,12.2,37.101,32.4v0.3
			c0,15.899-8.601,25.8-21.101,30.5l24,35.1H169.9z M170.3,184.3c0-9.3-6.5-14-17-14h-21.5v28.2h21.9c10.5,0,16.6-5.601,16.6-13.9
			V184.3z"/>
		<path fill="#333333" d="M259.5,250.8c-30.3,0-52.101-22.6-52.101-50.6V199.9c0-27.899,22-50.8,52.4-50.8
			c30.3,0,52.1,22.601,52.1,50.601v0.3C311.8,227.9,289.8,250.8,259.5,250.8 M289.2,199.9C289.2,183,276.8,169,259.4,169
			c-17.399,0-29.5,13.8-29.5,30.6v0.3c0,16.9,12.4,30.9,29.801,30.9c17.399,0,29.5-13.8,29.5-30.6V199.9z M234.3,124.1h20.5v19
			h-20.5V124.1z M264.4,124.1h20.5v19h-20.5V124.1z"/>
		<polygon fill="#333333" points="400,249.1 352.4,186.6 352.4,249.1 331.1,249.1 331.1,150.8 351,150.8 397.1,211.3 397.1,150.8 
			418.4,150.8 418.4,249.1 		"/>
		<path fill="#333333" d="M488.1,250.8c-28.9,0-50.4-22.3-50.4-50.6V199.9c0-27.899,21.101-50.8,51.3-50.8
			c18.5,0,29.601,6.2,38.801,15.2l-13.801,15.9c-7.6-6.9-15.3-11.101-25.1-11.101c-16.6,0-28.5,13.8-28.5,30.601v0.3
			c0,16.899,11.7,30.899,28.5,30.899c11.2,0,18.1-4.5,25.8-11.5l13.8,13.9C518.3,244,507.1,250.8,488.1,250.8"/>
		<polygon fill="#333333" points="609.199,249.1 578.699,207.2 567.3,219 567.3,249.1 545.699,249.1 545.699,150.8 567.3,150.8 
			567.3,193.7 607.199,150.8 633.3,150.8 593.3,192.5 635.1,249.1 		"/>
		<polygon fill="#333333" points="648.199,249.1 648.199,150.8 722.3,150.8 722.3,170 669.699,170 669.699,190 715.999,190 
			715.999,209.2 669.699,209.2 669.699,229.8 722.999,229.8 722.999,249.1 		"/>
		<rect x="7.3" y="298.4" fill="#333333" width="7.3" height="98.3"/>
		<polygon fill="#333333" points="121.1,396.699 51.9,309.3 51.9,396.699 44.8,396.699 44.8,298.4 51.7,298.4 119.5,383.9 
			119.5,298.4 126.6,298.4 126.6,396.699 		"/>
		<polygon fill="#333333" points="190.3,305.1 190.3,396.699 183,396.699 183,305.1 148.8,305.1 148.8,298.4 224.6,298.4 
			224.6,305.1 		"/>
		<polygon fill="#333333" points="246.8,396.699 246.8,298.4 316.7,298.4 316.7,305.1 254.1,305.1 254.1,343.699 310.4,343.699 
			310.4,350.499 254.1,350.499 254.1,389.9 317.4,389.9 317.4,396.699 		"/>
		<path fill="#333333" d="M411.7,396.699l-31.301-40.7H348.2v40.7H340.9v-98.3H382.2c21.199,0,35.1,11.5,35.1,27.9v0.3
			c0,16.399-12.2,25.8-28.8,28.1l32.399,42H411.7z M410,326.6c0-13.2-10.4-21.5-28.2-21.5h-33.6v44.2h33.1
			c16.4,0,28.6-8.3,28.6-22.5v-0.2H410z"/>
		<rect x="443.4" y="298.4" fill="#333333" width="7.3" height="98.3"/>
		<path fill="#333333" d="M525.8,398.3c-29.801,0-49.301-23.7-49.301-50.601v-0.3c0-26.8,19.801-50.8,49.601-50.8
			s49.3,23.7,49.3,50.6c0.1,0.101,0.1,0.101,0,0.3C575.4,374.3,555.6,398.3,525.8,398.3 M567.8,347.499
			c0-24.3-17.7-44.199-42-44.199c-24.301,0-41.7,19.699-41.7,44v0.3c0,24.3,17.7,44.2,42,44.2s41.7-19.7,41.7-44V347.499z"/>
		<path fill="#333333" d="M668.999,396.699l-31.3-40.7h-32.2v40.7h-7.3v-98.3h41.3c21.2,0,35.101,11.5,35.101,27.9v0.3
			c0,16.399-12.2,25.8-28.8,28.1l32.399,42H668.999z M667.3,326.6c0-13.2-10.4-21.5-28.2-21.5h-33.601v44.2H638.6
			c16.399,0,28.6-8.3,28.6-22.5v-0.2H667.3z"/>
		<path fill="#333333" d="M40.4,544.499H7.7v-98.3H40.4c30.9,0,52.2,21.2,52.2,48.9v0.3C92.7,522.999,71.3,544.499,40.4,544.499
			 M85.1,495.4c0-23.3-17.3-42.4-44.7-42.4H15V537.8H40.4c27.4,0,44.7-18.7,44.7-42.101V495.4z"/>
		<polygon fill="#333333" points="117.5,544.499 117.5,446.199 187.5,446.199 187.5,452.999 124.8,452.999 124.8,491.6 181.2,491.6 
			181.2,498.3 124.8,498.3 124.8,537.8 188.2,537.8 188.2,544.499 		"/>
		<path fill="#333333" d="M244.9,545.9c-15.699,0-27.8-5.2-39.6-15.7l4.8-5.5c10.8,10,20.8,14.601,35.3,14.601
			c14.7,0,24.9-8.301,24.9-19.5v-0.301c0-10.399-5.5-16.399-27.8-20.899c-23.601-4.8-33.101-12.8-33.101-27.7v-0.3
			c0-14.601,13.301-25.8,31.601-25.8c14.3,0,23.7,3.899,33.7,11.899l-4.601,5.8c-9.3-8-18.5-11.1-29.399-11.1
			c-14.5,0-24,8.3-24,18.5v0.3c0,10.4,5.3,16.7,28.6,21.5c22.8,4.601,32.3,12.8,32.3,27.101v0.3
			C277.5,534.999,263.9,545.9,244.9,545.9"/>
		<rect x="302.5" y="446.199" fill="#333333" width="7.3" height="98.3"/>
		<path fill="#333333" d="M385.1,546.199c-31,0-49.399-22.899-49.399-50.6v-0.3c0-26.5,19.199-50.8,48.6-50.8
			c16,0,26.1,4.8,36,12.899l-4.8,5.5c-7.7-6.7-16.7-11.8-31.601-11.8c-23.899,0-40.6,20.2-40.6,44v0.3c0,25.4,15.9,44.4,42.1,44.4
			c12.5,0,24.2-5.2,31.301-11.2v-28.2h-32.9v-6.7h39.899v37.9C414.9,539.3,401.1,546.199,385.1,546.199"/>
		<polygon fill="#333333" points="526.4,544.499 457.1,457.199 457.1,544.499 450.1,544.499 450.1,446.199 456.999,446.199 
			524.8,531.699 524.8,446.199 531.8,446.199 531.8,544.499 		"/>
	</g>
</g>
<g id="Ebene_1_Kopie">
	<g>
		<path fill="#FFFFFF" d="M50.4,101.7C21.5,101.7,0,79.3,0,51.1v-0.3C0,22.9,21.1,0,51.3,0C69.8,0,80.9,6.2,90,15.2L76.3,31
			C68.7,24.1,61,19.9,51.2,19.9C34.6,19.9,22.7,33.7,22.7,50.5v0.3c0,16.9,11.699,30.9,28.5,30.9c11.199,0,18.1-4.5,25.8-11.5
			L90.8,84.1C80.6,94.9,69.4,101.7,50.4,101.7"/>
		<polygon fill="#FFFFFF" points="169.5,100 169.5,60.5 129.6,60.5 129.6,100 108,100 108,1.7 129.6,1.7 129.6,40.6 169.5,40.6 
			169.5,1.7 191.1,1.7 191.1,100 		"/>
		<path fill="#FFFFFF" d="M274.4,100l-21.1-31.5h-17V100h-21.6V1.7H259.6C282.8,1.7,296.7,13.9,296.7,34.1v0.3
			c0,15.9-8.601,25.801-21.101,30.5l24,35.101H274.4z M274.8,35.3c0-9.3-6.5-14-17-14h-21.5v28.2h21.9c10.5,0,16.6-5.601,16.6-13.9
			V35.3z"/>
		<rect x="317.3" y="1.7" fill="#FFFFFF" width="21.6" height="98.3"/>
		<path fill="#FFFFFF" d="M398.4,101.4C383.5,101.4,368.5,96.2,356.7,85.7L369.5,70.4c8.8,7.301,18.1,11.9,29.399,11.9
			c8.8,0,14.2-3.5,14.2-9.3v-0.3c0-5.5-3.399-8.301-19.8-12.5C373.5,55.1,360.7,49.7,360.7,30.1v-0.3C360.7,12,375,0.2,395.1,0.2
			c14.3,0,26.5,4.5,36.5,12.5L420.4,29c-8.7-6-17.3-9.7-25.6-9.7s-12.601,3.8-12.601,8.6V28.2c0,6.5,4.2,8.6,21.2,12.899
			c19.9,5.2,31.2,12.4,31.2,29.5v0.3C434.499,90.4,419.6,101.4,398.4,101.4"/>
		<polygon fill="#FFFFFF" points="495.699,21.6 495.699,100 474.1,100 474.1,21.6 444.199,21.6 444.199,1.7 525.699,1.7 
			525.699,21.6 		"/>
		<rect x="543.199" y="1.7" fill="#FFFFFF" width="21.601" height="98.3"/>
		<polygon fill="#FFFFFF" points="658.4,100 610.8,37.5 610.8,100 589.4,100 589.4,1.7 609.4,1.7 655.4,62.2 655.4,1.7 676.8,1.7 
			676.8,100 		"/>
		<polygon fill="#FFFFFF" points="700.4,100 700.4,1.7 774.499,1.7 774.499,20.9 721.9,20.9 721.9,40.9 768.199,40.9 768.199,60.1 
			721.9,60.1 721.9,80.8 775.199,80.8 775.199,100 		"/>
		<polygon fill="#FFFFFF" points="70.1,248.1 39.6,206.2 28.3,218 28.3,248.1 6.6,248.1 6.6,149.8 28.3,149.8 28.3,192.7 
			68.2,149.8 94.3,149.8 54.2,191.5 96.1,248.1 		"/>
		<path fill="#FFFFFF" d="M168.9,248.1l-21.1-31.5h-17v31.5h-21.6v-98.3H154.1c23.2,0,37.101,12.2,37.101,32.4v0.3
			c0,15.899-8.601,25.8-21.101,30.5l24,35.1H168.9z M169.3,183.3c0-9.3-6.5-14-17-14h-21.5v28.2h21.9c10.5,0,16.6-5.601,16.6-13.9
			V183.3z"/>
		<path fill="#FFFFFF" d="M258.5,249.8c-30.3,0-52.101-22.6-52.101-50.6V198.9c0-27.899,22-50.8,52.4-50.8
			c30.3,0,52.1,22.601,52.1,50.601v0.3C310.8,226.9,288.8,249.8,258.5,249.8 M288.2,198.9C288.2,182,275.8,168,258.4,168
			c-17.399,0-29.5,13.8-29.5,30.6v0.3c0,16.9,12.4,30.9,29.801,30.9c17.399,0,29.5-13.8,29.5-30.6V198.9z M233.3,123.1h20.5v19
			h-20.5V123.1z M263.4,123.1h20.5v19h-20.5V123.1z"/>
		<polygon fill="#FFFFFF" points="399,248.1 351.4,185.6 351.4,248.1 330.1,248.1 330.1,149.8 350,149.8 396.1,210.3 396.1,149.8 
			417.4,149.8 417.4,248.1 		"/>
		<path fill="#FFFFFF" d="M487.1,249.8c-28.9,0-50.4-22.3-50.4-50.6V198.9c0-27.899,21.101-50.8,51.3-50.8
			c18.5,0,29.601,6.2,38.801,15.2l-13.801,15.9c-7.6-6.9-15.3-11.101-25.1-11.101c-16.6,0-28.5,13.8-28.5,30.601v0.3
			c0,16.899,11.7,30.899,28.5,30.899c11.2,0,18.1-4.5,25.8-11.5l13.8,13.9C517.3,243,506.1,249.8,487.1,249.8"/>
		<polygon fill="#FFFFFF" points="608.199,248.1 577.699,206.2 566.3,218 566.3,248.1 544.699,248.1 544.699,149.8 566.3,149.8 
			566.3,192.7 606.199,149.8 632.3,149.8 592.3,191.5 634.1,248.1 		"/>
		<polygon fill="#FFFFFF" points="647.199,248.1 647.199,149.8 721.3,149.8 721.3,169 668.699,169 668.699,189 714.999,189 
			714.999,208.2 668.699,208.2 668.699,228.8 721.999,228.8 721.999,248.1 		"/>
		<rect x="6.3" y="297.4" fill="#FFFFFF" width="7.3" height="98.3"/>
		<polygon fill="#FFFFFF" points="120.1,395.699 50.9,308.3 50.9,395.699 43.8,395.699 43.8,297.4 50.7,297.4 118.5,382.9 
			118.5,297.4 125.6,297.4 125.6,395.699 		"/>
		<polygon fill="#FFFFFF" points="189.3,304.1 189.3,395.699 182,395.699 182,304.1 147.8,304.1 147.8,297.4 223.6,297.4 
			223.6,304.1 		"/>
		<polygon fill="#FFFFFF" points="245.8,395.699 245.8,297.4 315.7,297.4 315.7,304.1 253.1,304.1 253.1,342.699 309.4,342.699 
			309.4,349.499 253.1,349.499 253.1,388.9 316.4,388.9 316.4,395.699 		"/>
		<path fill="#FFFFFF" d="M410.7,395.699l-31.301-40.7H347.2v40.7H339.9v-98.3H381.2c21.199,0,35.1,11.5,35.1,27.9v0.3
			c0,16.399-12.2,25.8-28.8,28.1l32.399,42H410.7z M409,325.6c0-13.2-10.4-21.5-28.2-21.5h-33.6v44.2h33.1
			c16.4,0,28.6-8.3,28.6-22.5v-0.2H409z"/>
		<rect x="442.4" y="297.4" fill="#FFFFFF" width="7.3" height="98.3"/>
		<path fill="#FFFFFF" d="M524.8,397.3c-29.801,0-49.301-23.7-49.301-50.601v-0.3c0-26.8,19.801-50.8,49.601-50.8
			s49.3,23.7,49.3,50.6c0.1,0.101,0.1,0.101,0,0.3C574.4,373.3,554.6,397.3,524.8,397.3 M566.8,346.499
			c0-24.3-17.7-44.199-42-44.199c-24.301,0-41.7,19.699-41.7,44v0.3c0,24.3,17.7,44.2,42,44.2s41.7-19.7,41.7-44V346.499z"/>
		<path fill="#FFFFFF" d="M667.999,395.699l-31.3-40.7h-32.2v40.7h-7.3v-98.3h41.3c21.2,0,35.101,11.5,35.101,27.9v0.3
			c0,16.399-12.2,25.8-28.8,28.1l32.399,42H667.999z M666.3,325.6c0-13.2-10.4-21.5-28.2-21.5h-33.601v44.2H637.6
			c16.399,0,28.6-8.3,28.6-22.5v-0.2H666.3z"/>
		<path fill="#FFFFFF" d="M39.4,543.499H6.7v-98.3H39.4c30.9,0,52.2,21.2,52.2,48.9v0.3C91.7,521.999,70.3,543.499,39.4,543.499
			 M84.1,494.4c0-23.3-17.3-42.4-44.7-42.4H14V536.8H39.4c27.4,0,44.7-18.7,44.7-42.101V494.4z"/>
		<polygon fill="#FFFFFF" points="116.5,543.499 116.5,445.199 186.5,445.199 186.5,451.999 123.8,451.999 123.8,490.6 180.2,490.6 
			180.2,497.3 123.8,497.3 123.8,536.8 187.2,536.8 187.2,543.499 		"/>
		<path fill="#FFFFFF" d="M243.9,544.9c-15.699,0-27.8-5.2-39.6-15.7l4.8-5.5c10.8,10,20.8,14.601,35.3,14.601
			c14.7,0,24.9-8.301,24.9-19.5v-0.301c0-10.399-5.5-16.399-27.8-20.899c-23.601-4.8-33.101-12.8-33.101-27.7v-0.3
			c0-14.601,13.301-25.8,31.601-25.8c14.3,0,23.7,3.899,33.7,11.899l-4.601,5.8c-9.3-8-18.5-11.1-29.399-11.1
			c-14.5,0-24,8.3-24,18.5v0.3c0,10.4,5.3,16.7,28.6,21.5c22.8,4.601,32.3,12.8,32.3,27.101v0.3
			C276.5,533.999,262.9,544.9,243.9,544.9"/>
		<rect x="301.5" y="445.199" fill="#FFFFFF" width="7.3" height="98.3"/>
		<path fill="#FFFFFF" d="M384.1,545.199c-31,0-49.399-22.899-49.399-50.6v-0.3c0-26.5,19.199-50.8,48.6-50.8
			c16,0,26.1,4.8,36,12.899l-4.8,5.5c-7.7-6.7-16.7-11.8-31.601-11.8c-23.899,0-40.6,20.2-40.6,44v0.3c0,25.4,15.9,44.4,42.1,44.4
			c12.5,0,24.2-5.2,31.301-11.2v-28.2h-32.9v-6.7h39.899v37.9C413.9,538.3,400.1,545.199,384.1,545.199"/>
		<polygon fill="#FFFFFF" points="525.4,543.499 456.1,456.199 456.1,543.499 449.1,543.499 449.1,445.199 455.999,445.199 
			523.8,530.699 523.8,445.199 530.8,445.199 530.8,543.499 		"/>
	</g>
</g>
</svg>
